<svg width="320" height="29" viewBox="0 0 320 29" fill="none" xmlns="http://www.w3.org/2000/svg">
<path d="M109.98 27.3245V3.52637H123.221V5.74547H112.306V14.1199H121.933V16.339H112.306V27.3245H109.98Z" fill="#3B3935"/>
<path d="M133.457 27.7543C127.66 27.7543 124.582 23.6034 124.582 18.3421C124.582 13.0809 127.983 9.18018 133.528 9.18018C138.61 9.18018 141.579 12.366 141.579 17.4109C141.579 17.7319 141.579 18.3049 141.544 18.6632H126.799C126.835 22.6349 129.304 25.6416 133.599 25.6416C137.464 25.6416 139.216 24.281 140.756 23.1369V25.4997C139.647 26.2873 137.464 27.7543 133.457 27.7543ZM139.396 16.696C139.396 13.7266 137.249 11.2219 133.49 11.2219C129.732 11.2219 127.335 13.5119 127.014 16.696H139.396Z" fill="#3B3935"/>
<path d="M144.555 23.8178C146.559 24.9992 148.276 25.6076 150.675 25.6076C153.538 25.6076 154.934 24.6409 154.934 22.53C154.934 21.0985 153.86 20.4546 151.427 19.596L149.208 18.7729C146.595 17.8062 145.128 16.5538 145.128 14.0491C145.128 11.1152 147.239 9.25439 151.283 9.25439C153.25 9.25439 155.004 9.64817 156.58 10.2566V12.6549C154.863 11.8318 153.467 11.3316 151.283 11.3316C148.814 11.3316 147.382 12.1901 147.382 14.1236C147.382 15.305 148.026 16.0554 150.21 16.843L152.25 17.5951C155.507 18.8474 157.224 19.8142 157.224 22.569C157.224 26.1469 154.361 27.6866 150.639 27.6866C148.528 27.6866 146.453 27.2218 144.555 26.2551V23.8214V23.8178Z" fill="#3B3935"/>
<path d="M167.241 27.7543C164.665 27.7543 163.054 26.4665 162.552 24.391C162.267 23.4243 162.229 22.03 162.229 20.6695V11.7239H159.223V9.64846H162.229L162.3 5.06834L164.411 4.35352V9.65024H170.137V11.7256H164.411V20.3147C164.411 21.4234 164.447 22.6775 164.661 23.536C164.947 24.7884 165.843 25.6469 167.56 25.6469C168.741 25.6469 169.885 25.3968 171.067 24.8239V26.9347C170.173 27.364 168.668 27.7578 167.237 27.7578L167.241 27.7543Z" fill="#3B3935"/>
<path d="M173.645 4.38523C173.645 3.45573 174.288 2.70361 175.255 2.70361C176.222 2.70361 176.83 3.4912 176.83 4.38523C176.83 5.27926 176.116 6.03138 175.255 6.03138C174.324 6.03138 173.645 5.31473 173.645 4.38523ZM174.145 9.64649H176.364V27.3248H174.145V9.64649Z" fill="#3B3935"/>
<path d="M186.813 27.3248L179.012 9.64648H181.552C186.132 20.2027 187.028 22.2427 187.851 24.3554C188.709 22.2445 189.462 20.4191 194.148 9.64648H196.546L188.745 27.3248H186.813Z" fill="#3B3935"/>
<path d="M211.722 27.6832C210.755 27.6832 209.359 27.2184 209.288 24.8202C208.429 26.0015 206.46 27.6832 203.062 27.6832C199.305 27.6832 197.371 25.214 197.371 22.6011C197.371 20.4902 198.444 18.9859 200.484 18.0919C202.631 17.1252 205.781 16.7686 209.18 16.7313V15.8018C209.18 14.9433 209.18 13.9765 208.894 13.1535C208.5 11.9721 207.212 11.3282 205.352 11.3282C203.097 11.3282 200.736 12.1158 198.838 13.2599V11.0053C200.52 10.0386 203.062 9.25098 205.458 9.25098C209.251 9.25098 210.718 10.718 211.149 12.7579C211.399 13.8666 211.399 15.2981 211.399 16.444V24.0308C211.399 24.3891 211.47 24.8894 211.542 25.104C211.686 25.3541 211.972 25.5687 212.509 25.5687C212.938 25.5687 213.547 25.4605 214.12 25.2104V27.1794C213.44 27.5005 212.474 27.6814 211.722 27.6814V27.6832ZM208.644 23.1013C209.038 22.6365 209.181 21.8135 209.181 20.9177V18.6276C206.175 18.6276 203.17 18.9132 201.488 19.7363C200.165 20.3802 199.556 21.2033 199.556 22.4911C199.556 24.7102 201.488 25.5687 203.314 25.5687C206.177 25.5687 207.714 24.2082 208.646 23.0995L208.644 23.1013Z" fill="#3B3935"/>
<path d="M220.311 27.6831C219.165 27.6831 218.2 27.3975 217.663 26.3225C217.377 25.7496 217.305 24.891 217.305 23.7096V0.949219H219.524V23.6724C219.524 24.1371 219.559 24.7101 219.667 24.9602C219.811 25.3185 220.132 25.5332 220.812 25.5332C221.205 25.5332 221.814 25.3895 222.387 25.1039V27.2148C221.778 27.5004 221.026 27.6796 220.311 27.6796V27.6831Z" fill="#3B3935"/>
<path d="M237.381 27.325V24.5702C236.308 26.3955 234.053 27.7188 231.334 27.7188C225.966 27.7188 223.891 23.7116 223.891 18.8796C223.891 13.6556 226.61 9.18191 233.445 9.18191C234.876 9.18191 236.093 9.39655 237.202 9.75487V0.951172H241.89V27.325H237.381ZM233.909 12.9744C230.546 12.9744 228.648 14.9061 228.648 18.5213C228.648 21.6699 229.936 23.889 232.978 23.889C234.339 23.889 235.697 23.1369 236.379 22.2074C236.843 21.528 237.202 20.5967 237.202 19.488V13.6183C236.27 13.1536 235.126 12.9744 233.909 12.9744Z" fill="#3B3935"/>
<path d="M255.238 27.7186C249.405 27.7186 245.684 24.068 245.684 18.4502C245.684 13.1535 249.297 9.03809 255.31 9.03809C261.324 9.03809 264.902 12.9033 264.902 18.342C264.902 23.7806 261.109 27.7186 255.239 27.7186H255.238ZM255.31 12.8306C251.91 12.8306 250.407 15.479 250.407 18.4484C250.407 21.597 252.089 23.8871 255.31 23.8871C258.532 23.8871 260.141 21.3096 260.141 18.3757C260.141 15.4417 258.78 12.8288 255.31 12.8288V12.8306Z" fill="#3B3935"/>
<path d="M284.222 27.325L280.824 21.4552C280.18 20.3821 279.642 19.5235 278.892 18.9505C278.104 18.3421 277.246 18.1275 275.993 18.1275H273.703V27.325H268.836V3.49135C268.836 3.49135 275.814 3.34766 277.175 3.34766C279.538 3.34766 281.97 3.63324 283.437 4.3144C285.62 5.38759 286.873 7.6422 286.873 10.2906C286.873 12.5806 285.728 14.3705 284.224 15.4436C283.651 15.8729 282.793 16.2667 281.826 16.4459C282.649 16.696 283.293 17.1625 283.758 17.6272C284.295 18.2357 285.045 19.3089 285.475 20.0965L289.661 27.325H284.222ZM277.423 14.1203C278.496 14.1203 279.607 13.9766 280.322 13.5119C281.288 12.9035 281.897 12.0449 281.897 10.7571C281.897 9.39653 281.145 8.3943 280.107 7.92955C279.355 7.53576 278.032 7.46478 277.065 7.46478C275.562 7.46478 273.702 7.57123 273.702 7.57123V14.1203H277.423Z" fill="#3B3935"/>
<path d="M292.027 4.02891C292.027 2.56193 293.101 1.41602 294.568 1.41602C296.034 1.41602 297.145 2.5974 297.145 4.02891C297.145 5.46042 295.999 6.60633 294.568 6.60633C293.136 6.60633 292.027 5.49767 292.027 4.02891ZM292.277 9.50302H296.893V27.325H292.277V9.50302Z" fill="#3B3935"/>
<path d="M310.132 27.7186C304.3 27.7186 300.578 24.068 300.578 18.4502C300.578 13.1535 304.191 9.03809 310.205 9.03809C316.218 9.03809 319.796 12.9033 319.796 18.342C319.796 23.7806 316.004 27.7186 310.134 27.7186H310.132ZM310.205 12.8306C306.804 12.8306 305.302 15.479 305.302 18.4484C305.302 21.597 306.984 23.8871 310.205 23.8871C313.426 23.8871 315.035 21.3096 315.035 18.3757C315.035 15.4417 313.675 12.8288 310.205 12.8288V12.8306Z" fill="#3B3935"/>
<path fill-rule="evenodd" clip-rule="evenodd" d="M79.7082 0.202089C73.3489 0.812297 70.6278 1.38528 51.4452 7.498C51.4452 7.498 46.1201 9.19559 43.4114 9.1885C40.912 9.18317 37.1266 8.01595 37.1266 8.01595C-42.486 -22.9184 29.4192 47.275 37.8912 24.2769C40.0978 18.0116 41.6464 15.7943 43.4132 15.8351C45.9374 15.8351 47.5161 21.1354 48.9157 24.3461C49.6448 26.0189 51.1472 28.999 52.2151 28.999C54.0936 28.999 54.4306 23.4787 57.6449 23.4982C60.7633 23.6543 60.7172 28.559 63.3212 28.9404C66.4486 29.4335 70.6491 26.8685 76.0647 21.6108C87.1442 10.8523 93.0529 -0.10124 79.7099 0.203864L79.7082 0.202089Z" fill="#3B3935"/>
</svg>
