<svg xmlns="http://www.w3.org/2000/svg" width="14" height="15" viewBox="0 0 14 15" fill="none">
<path d="M6.92733 12.3497C5.6411 12.3497 4.40755 11.8387 3.49804 10.9292C2.58854 10.0197 2.07759 8.78619 2.07759 7.49996C2.07759 6.21373 2.58854 4.98018 3.49804 4.07067C4.40755 3.16117 5.6411 2.65022 6.92733 2.65022C8.21356 2.65022 9.44711 3.16117 10.3566 4.07067C11.2661 4.98018 11.7771 6.21373 11.7771 7.49996C11.7771 8.78619 11.2661 10.0197 10.3566 10.9292C9.44711 11.8387 8.21356 12.3497 6.92733 12.3497ZM6.92733 13.0425C8.39731 13.0425 9.80708 12.4586 10.8465 11.4191C11.8859 10.3797 12.4699 8.96994 12.4699 7.49996C12.4699 6.02998 11.8859 4.62021 10.8465 3.58078C9.80708 2.54134 8.39731 1.9574 6.92733 1.9574C5.45735 1.9574 4.04758 2.54134 3.00814 3.58078C1.96871 4.62021 1.38477 6.02998 1.38477 7.49996C1.38477 8.96994 1.96871 10.3797 3.00814 11.4191C4.04758 12.4586 5.45735 13.0425 6.92733 13.0425Z" fill="#3B3935"/>
<path d="M7.63469 6.7051L6.04813 6.90394L5.99132 7.16721L6.30309 7.22472C6.50678 7.27322 6.54696 7.34665 6.50262 7.54965L5.99132 9.95235C5.85692 10.5738 6.06407 10.8662 6.55112 10.8662C6.92871 10.8662 7.36726 10.6916 7.5661 10.4519L7.62707 10.1637C7.48851 10.2856 7.2862 10.3341 7.1518 10.3341C6.96127 10.3341 6.89199 10.2004 6.94118 9.96482L7.63469 6.7051ZM7.68319 5.25849C7.68319 5.44224 7.6102 5.61846 7.48027 5.74839C7.35034 5.87832 7.17412 5.95131 6.99037 5.95131C6.80662 5.95131 6.6304 5.87832 6.50047 5.74839C6.37054 5.61846 6.29755 5.44224 6.29755 5.25849C6.29755 5.07475 6.37054 4.89853 6.50047 4.7686C6.6304 4.63867 6.80662 4.56567 6.99037 4.56567C7.17412 4.56567 7.35034 4.63867 7.48027 4.7686C7.6102 4.89853 7.68319 5.07475 7.68319 5.25849Z" fill="#3B3935"/>
</svg>
