<svg width="102" height="52" viewBox="0 0 102 52" fill="none" xmlns="http://www.w3.org/2000/svg">
<g clip-path="url(#clip0_2664_4959)">
<g clip-path="url(#clip1_2664_4959)">
<path d="M13.417 26.2253L13.4341 26.1912L13.417 26.1528V26.2253Z" fill="#1EB577"/>
<path d="M20.9778 24.7622L17.3401 26.1909L20.9778 27.6195L45.3161 27.6238L45.3204 24.7707L20.9778 24.7622Z" fill="#1EB577"/>
<path d="M20.9774 27.6196H16.9985L19.6767 30.1784L41.759 38.8527L42.8039 36.1958L20.9774 27.6196Z" fill="black"/>
<path d="M19.6774 30.1788L16.014 28.7373L17.2721 31.8292L33.0044 46.8535L34.9746 44.7894L19.6774 30.1788Z" fill="#046DB7"/>
<path d="M14.2233 31.9825L21.3068 49.395L23.9552 48.3161L17.2426 31.829L14.5175 29.2275L14.2233 31.9825Z" fill="#FFCE27"/>
<path d="M11.5238 30.2724L9.88196 45.5825L12.7222 45.8853L14.2191 31.8973L12.9312 28.7329L11.5238 30.2724Z" fill="#1EB577"/>
<path d="M13.417 26.1916H13.4348L13.417 26.1782V26.1916Z" fill="#FFCE27"/>
<path d="M10.1833 27.6196L1.98242 36.5626L4.08915 38.4945L11.548 30.3575L11.8423 27.6196H10.1833Z" fill="#FFCE27"/>
<path d="M0 24.7113V27.5686L10.184 27.5643L11.4932 26.1357L10.184 24.707L0 24.7113Z" fill="#F0493E"/>
<path d="M13.417 26.1909V26.2043L13.4348 26.1909H13.417Z" fill="#1EB577"/>
<path d="M11.548 22.0288L4.08915 13.9004L1.98242 15.8365L10.1833 24.7624H11.8423L11.548 22.0288Z" fill="#1EB577"/>
<path d="M14.2191 20.2588L12.7222 6.2793L9.88196 6.58209L11.5238 21.8879L12.9312 23.4232L14.2191 20.2588Z" fill="#FFCE27"/>
<path d="M21.3111 3L14.2233 20.3997L14.5175 23.1547L17.2426 20.5533L23.9552 4.07895L21.3111 3Z" fill="black"/>
<path d="M19.6774 22.2035L34.9746 7.60559L33.0044 5.5415L17.2721 20.553L16.014 23.6449L19.6774 22.2035Z" fill="#046DB7"/>
<path d="M41.759 13.5381L19.6767 22.2038L16.9985 24.7626H20.9774L42.8039 16.195L41.759 13.5381Z" fill="#F0493E"/>
<path d="M51.8754 21.6447V15.4951H53.5642V20.1734H56.3532V21.6447H51.8754Z" fill="black"/>
<mask id="mask0_2664_4959" style="mask-type:luminance" maskUnits="userSpaceOnUse" x="0" y="3" width="103" height="47">
<path d="M102.223 3H0V49.395H102.223V3Z" fill="white"/>
</mask>
<g mask="url(#mask0_2664_4959)">
<path d="M59.07 21.7259C58.7587 21.7259 58.4644 21.6833 58.1958 21.6023C57.9271 21.5212 57.6925 21.4061 57.4964 21.2654C57.3002 21.1246 57.1339 20.954 56.9931 20.7621C56.8524 20.5702 56.7458 20.3613 56.6775 20.131C56.6093 19.9049 56.5752 19.6661 56.5752 19.423C56.5752 19.0904 56.6306 18.7791 56.7372 18.4891C56.8439 18.1991 57.0017 17.9432 57.2106 17.7172C57.4153 17.4954 57.6797 17.3206 57.9996 17.1884C58.3194 17.0562 58.6777 16.9922 59.07 16.9922C59.4624 16.9922 59.8206 17.0562 60.1447 17.1841C60.4645 17.312 60.729 17.4869 60.9294 17.7044C61.1341 17.9219 61.2876 18.1735 61.3985 18.455C61.5094 18.7364 61.5648 19.0349 61.5648 19.3548C61.5648 19.5211 61.5478 19.6874 61.5179 19.858H58.3237C58.3408 20.0883 58.426 20.2589 58.5796 20.374C58.7331 20.4892 58.9122 20.5446 59.1212 20.5446C59.3046 20.5446 59.4751 20.502 59.6329 20.4167C59.7907 20.3314 59.8973 20.2205 59.9443 20.0841L61.3345 20.4849C61.1384 20.8645 60.8484 21.163 60.456 21.3848C60.0637 21.6065 59.6031 21.7174 59.0657 21.7174M58.2896 18.8814H59.7993C59.7737 18.6597 59.6926 18.4891 59.5604 18.3611C59.4282 18.2332 59.2534 18.1692 59.0444 18.1692C58.8355 18.1692 58.6649 18.2332 58.5284 18.3611C58.3919 18.4891 58.3152 18.6597 58.2896 18.8814Z" fill="black"/>
<path d="M62.0975 15.3203H63.7437V16.7063H62.0975V15.3203ZM62.0975 17.0901H63.7437V21.6448H62.0975V17.0901Z" fill="black"/>
<path d="M66.6304 21.6449V15.4995H69.4536C69.7436 15.4995 70.0208 15.5592 70.2809 15.6829C70.5453 15.8066 70.7628 15.9686 70.9419 16.1691C71.121 16.3695 71.2618 16.5955 71.3641 16.8514C71.4707 17.1073 71.5219 17.3632 71.5219 17.6276C71.5219 17.9815 71.4451 18.3142 71.2874 18.6255C71.1296 18.9368 70.9121 19.1884 70.6391 19.3846L71.9356 21.6449H70.0847L69.0015 19.7599H68.3192V21.6449H66.6304ZM68.3192 18.2801H69.3853C69.4962 18.2801 69.5943 18.2204 69.6796 18.1009C69.7649 17.9815 69.8118 17.8237 69.8118 17.6233C69.8118 17.4229 69.7649 17.2651 69.6625 17.1457C69.5644 17.0263 69.4578 16.9623 69.3427 16.9623H68.3192V18.2758V18.2801Z" fill="black"/>
<path d="M72.1111 19.3631C72.1111 19.0432 72.1665 18.7447 72.2774 18.4633C72.3883 18.1818 72.5418 17.9302 72.7465 17.7127C72.9512 17.4952 73.2114 17.3203 73.5312 17.1924C73.8511 17.0645 74.2093 17.0005 74.6059 17.0005C75.0025 17.0005 75.3565 17.0645 75.6806 17.1924C76.0004 17.3203 76.2648 17.4952 76.4695 17.7127C76.6742 17.9302 76.8278 18.1818 76.9387 18.4633C77.0495 18.7447 77.105 19.0432 77.105 19.3631C77.105 19.6829 77.0495 19.9772 76.9387 20.2587C76.8278 20.5401 76.6742 20.7918 76.4695 21.0092C76.2648 21.231 76.0047 21.4016 75.6806 21.5295C75.3607 21.6575 75.0025 21.7214 74.6059 21.7214C74.2093 21.7214 73.8553 21.6575 73.5312 21.5295C73.2071 21.4016 72.947 21.2267 72.7465 21.0092C72.5418 20.7918 72.3883 20.5401 72.2774 20.2587C72.1665 19.9772 72.1111 19.6787 72.1111 19.3631ZM74.0216 20.0796C74.1709 20.2587 74.3671 20.344 74.6016 20.344C74.8362 20.344 75.0324 20.2544 75.1816 20.0796C75.3309 19.9004 75.4034 19.6616 75.4034 19.3631C75.4034 19.0646 75.3266 18.8258 75.1816 18.6509C75.0324 18.4761 74.8405 18.3865 74.6016 18.3865C74.3628 18.3865 74.1666 18.4761 74.0174 18.6509C73.8681 18.8258 73.7956 19.0646 73.7956 19.3631C73.7956 19.6616 73.8724 19.9004 74.0216 20.0796Z" fill="black"/>
<path d="M77.6334 20.0841V17.0903H79.2796V19.7131C79.2796 19.9093 79.3222 20.067 79.4118 20.1779C79.5013 20.2888 79.625 20.3485 79.7828 20.3485C80.0941 20.3485 80.3543 20.1907 80.5675 19.8794V17.0946H82.2136V19.8325C82.2136 19.986 82.235 20.0969 82.2819 20.1566C82.3288 20.2206 82.4098 20.2547 82.525 20.2632V21.6492C82.2435 21.7047 82.0132 21.7345 81.8298 21.7345C81.2669 21.7345 80.9471 21.5256 80.8618 21.1034L80.8276 20.937C80.431 21.4659 79.8382 21.7303 79.0535 21.7303C78.593 21.7303 78.2433 21.5895 78.0002 21.3081C77.7571 21.0266 77.6334 20.6172 77.6334 20.0884" fill="black"/>
<path d="M82.9476 20.2633C82.9476 19.807 83.131 19.4317 83.4978 19.1417C83.8645 18.8517 84.3379 18.7067 84.9136 18.7067C85.2889 18.7067 85.596 18.7664 85.8305 18.8816V18.7408C85.8305 18.5276 85.7666 18.3655 85.6429 18.2632C85.5192 18.1608 85.3188 18.1054 85.0458 18.1054C84.8027 18.1054 84.5682 18.1438 84.3464 18.2248C84.1289 18.3058 83.8901 18.4295 83.6342 18.6001L83.1566 17.5766C83.7579 17.1885 84.4403 16.9966 85.2079 16.9966C85.9755 16.9966 86.5001 17.1629 86.8924 17.4913C87.2848 17.8197 87.4809 18.3016 87.4809 18.937V19.8198C87.4809 19.9733 87.5023 20.0842 87.5492 20.1439C87.5961 20.2079 87.6771 20.242 87.7923 20.2505V21.6365C87.5406 21.692 87.3061 21.7218 87.0971 21.7218C86.5342 21.7218 86.2143 21.5128 86.1291 21.0906L86.0907 20.9243C85.677 21.4531 85.161 21.7175 84.5426 21.7175C84.0863 21.7175 83.7067 21.5768 83.404 21.2996C83.1012 21.0224 82.9476 20.6727 82.9476 20.2548M85.613 20.3784C85.758 20.2846 85.8305 20.178 85.8305 20.0586V19.7217C85.6088 19.6407 85.3955 19.6023 85.1951 19.6023C84.9947 19.6023 84.8326 19.6492 84.7004 19.7515C84.5639 19.8496 84.5 19.9733 84.5 20.1226C84.5 20.2462 84.5511 20.3486 84.6492 20.4296C84.7516 20.5106 84.8795 20.5533 85.033 20.5533C85.2505 20.5533 85.4424 20.4979 85.6173 20.3784" fill="black"/>
<path d="M92.9645 21.6448H91.3183V19.0818C91.3183 18.8685 91.2714 18.7107 91.1733 18.6041C91.0753 18.4975 90.9558 18.4421 90.8151 18.4421C90.6744 18.4421 90.5208 18.506 90.3673 18.6297C90.2138 18.7534 90.0987 18.9069 90.0262 19.0946V21.6491H88.38V17.0944H89.8641V17.7683C90.0262 17.5209 90.2522 17.3333 90.5464 17.2011C90.8407 17.0731 91.1819 17.0049 91.5785 17.0049C91.7747 17.0049 91.9538 17.0305 92.1073 17.0816C92.2651 17.1328 92.3888 17.2053 92.4868 17.2949C92.5849 17.3887 92.666 17.4868 92.7342 17.5891C92.7982 17.6958 92.8493 17.8152 92.8835 17.9474C92.9176 18.0796 92.9389 18.2032 92.9474 18.3099C92.9602 18.4165 92.9645 18.5274 92.9645 18.6468V21.6448Z" fill="black"/>
<path d="M95.9974 21.7259C95.6861 21.7259 95.3918 21.6833 95.1231 21.6023C94.8545 21.5212 94.6199 21.4061 94.4237 21.2654C94.2276 21.1246 94.0612 20.954 93.9205 20.7621C93.7798 20.5702 93.6732 20.3613 93.6049 20.131C93.5367 19.9049 93.5026 19.6661 93.5026 19.423C93.5026 19.0904 93.558 18.7791 93.6646 18.4891C93.7712 18.1991 93.929 17.9432 94.138 17.7172C94.3427 17.4954 94.6071 17.3206 94.927 17.1884C95.2468 17.0562 95.605 16.9922 95.9974 16.9922C96.3897 16.9922 96.748 17.0562 97.0721 17.1841C97.3919 17.312 97.6563 17.4869 97.8568 17.7044C98.0615 17.9219 98.215 18.1735 98.3259 18.455C98.4368 18.7364 98.4922 19.0349 98.4922 19.3548C98.4922 19.5211 98.4751 19.6874 98.4453 19.858H95.2511C95.2681 20.0883 95.3534 20.2589 95.5069 20.374C95.6605 20.4892 95.8396 20.5446 96.0486 20.5446C96.2319 20.5446 96.4025 20.502 96.5603 20.4167C96.7181 20.3314 96.8247 20.2205 96.8716 20.0841L98.2619 20.4849C98.0657 20.8645 97.7757 21.163 97.3834 21.3848C96.991 21.6065 96.5305 21.7174 95.9931 21.7174M95.217 18.8814H96.7266C96.701 18.6597 96.62 18.4891 96.4878 18.3611C96.3556 18.2332 96.185 18.1692 95.9718 18.1692C95.7586 18.1692 95.5922 18.2332 95.4558 18.3611C95.3193 18.4891 95.2425 18.6597 95.217 18.8814Z" fill="black"/>
<path d="M102.223 21.393C101.686 21.6233 101.183 21.7385 100.709 21.7385C100.513 21.7385 100.338 21.7172 100.181 21.666C100.023 21.6191 99.8777 21.5423 99.7498 21.4442C99.6219 21.3461 99.5195 21.2054 99.4513 21.0305C99.3788 20.8557 99.3447 20.651 99.3447 20.4079V18.3225H98.7817V17.0815H99.3447V15.6528H100.991V17.0815H101.882V18.3225H100.991V19.8279C100.991 20.0966 101.11 20.2331 101.345 20.2331C101.494 20.2331 101.69 20.1861 101.933 20.0838L102.228 21.3845L102.223 21.393Z" fill="black"/>
<path d="M52.2455 28.9929V24.9756H54.9237V25.5343H52.8766V26.7369H54.5868V27.2614H52.8766V28.9929H52.2455Z" fill="black"/>
<path d="M55.389 27.8457V26.0332H56.0117V27.7177C56.0117 27.9821 56.0586 28.1783 56.1567 28.3148C56.2548 28.4513 56.3955 28.5152 56.5789 28.5152C56.7622 28.5152 56.9286 28.4598 57.0864 28.3489C57.2442 28.238 57.3636 28.0802 57.4489 27.8798V26.0332H58.0758V28.2935C58.0758 28.366 58.0886 28.4171 58.1141 28.447C58.1397 28.4768 58.1824 28.4939 58.2421 28.4982V28.9971C58.1355 29.0142 58.0416 29.027 57.9649 29.027C57.8497 29.027 57.7559 28.9971 57.6791 28.9332C57.6024 28.8692 57.5597 28.7924 57.5512 28.6901L57.5427 28.3958C57.4105 28.609 57.2399 28.7711 57.0309 28.882C56.822 28.9929 56.5874 29.0526 56.3315 29.0526C56.0245 29.0526 55.7899 28.9502 55.6321 28.7455C55.4743 28.5408 55.3933 28.2423 55.3933 27.8457" fill="black"/>
<path d="M61.5 28.9931H60.8774V27.3342C60.8774 27.0612 60.8347 26.8565 60.7452 26.7286C60.6556 26.6007 60.5277 26.5367 60.3528 26.5367C60.178 26.5367 59.9946 26.6049 59.824 26.7371C59.6534 26.8693 59.534 27.0357 59.47 27.2318V28.9931H58.8474V26.0335H59.4146V26.6263C59.5298 26.4258 59.6918 26.268 59.9093 26.1529C60.1268 26.0377 60.3614 25.978 60.6215 25.978C60.758 25.978 60.8816 25.9993 60.984 26.042C61.0863 26.0846 61.1716 26.1401 61.2399 26.2126C61.3038 26.2851 61.3593 26.3746 61.3977 26.4813C61.4403 26.5879 61.4659 26.6988 61.483 26.8096C61.5 26.9205 61.5085 27.0485 61.5085 27.1892V28.9931H61.5Z" fill="black"/>
<path d="M62.0126 27.5128C62.0126 27.2314 62.068 26.9755 62.1832 26.7409C62.294 26.5064 62.4561 26.323 62.6608 26.1823C62.8655 26.0458 63.0958 25.9733 63.3517 25.9733C63.5692 25.9733 63.7739 26.0287 63.9572 26.1439C64.1406 26.259 64.2856 26.404 64.3922 26.5874V24.856H65.0149V28.2847C65.0149 28.3572 65.0277 28.4084 65.0533 28.4383C65.0788 28.4681 65.1215 28.4852 65.1855 28.4894V28.9884C65.0746 29.0055 64.985 29.0182 64.9125 29.0182C64.7974 29.0182 64.6993 28.9841 64.6183 28.9202C64.5372 28.8562 64.4946 28.7709 64.4903 28.6728V28.451C64.3709 28.6387 64.2217 28.7837 64.0297 28.886C63.8421 28.9927 63.6374 29.0438 63.4242 29.0438C63.1555 29.0438 62.9167 28.9756 62.6992 28.8349C62.4817 28.6941 62.3154 28.5108 62.1959 28.2762C62.0765 28.0416 62.0168 27.7858 62.0168 27.5086M64.388 27.9308V27.1546C64.324 26.9755 64.2089 26.8262 64.0383 26.7025C63.872 26.5789 63.7014 26.5192 63.5308 26.5192C63.3602 26.5192 63.2067 26.5661 63.0745 26.6642C62.938 26.7623 62.8356 26.8859 62.7631 27.0395C62.6906 27.193 62.6565 27.3593 62.6565 27.5342C62.6565 27.8071 62.7461 28.0416 62.9209 28.2336C63.1001 28.4255 63.3176 28.5235 63.5777 28.5235C63.744 28.5235 63.9103 28.4638 64.0767 28.3487C64.243 28.2336 64.3453 28.0971 64.388 27.935" fill="black"/>
<path d="M65.6974 28.1016C65.6249 27.9139 65.5908 27.722 65.5908 27.5173C65.5908 27.3126 65.6292 27.1165 65.7017 26.9331C65.7742 26.7454 65.8766 26.5834 66.0045 26.4426C66.1324 26.3019 66.2945 26.191 66.4864 26.11C66.6783 26.029 66.8873 25.9863 67.109 25.9863C67.4076 25.9863 67.6762 26.0588 67.9108 26.1996C68.1453 26.3403 68.3245 26.5279 68.4481 26.7625C68.5718 26.9928 68.6315 27.2487 68.6315 27.5216C68.6315 27.7945 68.5718 28.0504 68.4481 28.2807C68.3245 28.511 68.1453 28.6986 67.9108 28.8436C67.6762 28.9844 67.4076 29.0569 67.109 29.0569C66.883 29.0569 66.674 29.0142 66.4821 28.9332C66.2902 28.8522 66.1282 28.737 66.0002 28.6006C65.8723 28.4598 65.7699 28.2978 65.6974 28.1101M66.4821 28.2338C66.6527 28.4214 66.8617 28.5195 67.109 28.5195C67.3564 28.5195 67.5653 28.4214 67.7359 28.2295C67.9065 28.0376 67.9918 27.7988 67.9918 27.5173C67.9918 27.2359 67.9065 26.997 67.7359 26.8051C67.5653 26.6132 67.3564 26.5151 67.109 26.5151C66.8617 26.5151 66.657 26.6132 66.4864 26.8094C66.3158 27.0056 66.2305 27.2444 66.2305 27.5259C66.2305 27.8073 66.3158 28.0461 66.4864 28.2381" fill="black"/>
<path d="M71.2497 26.1526V28.9929H70.6185V24.9756H71.1346L73.4119 27.8798V24.9799H74.0516V28.9929H73.4972L71.2497 26.1526Z" fill="black"/>
<path d="M74.6351 28.1274C74.6351 27.8459 74.7545 27.6199 74.9848 27.4451C75.2194 27.2745 75.5222 27.1892 75.8974 27.1892C76.196 27.1892 76.4561 27.2276 76.6693 27.3086V27.121C76.6693 26.912 76.6054 26.7499 76.4774 26.6305C76.3495 26.5154 76.1704 26.4557 75.9401 26.4557C75.7823 26.4557 75.6288 26.4813 75.4795 26.5367C75.3303 26.5921 75.1725 26.6774 74.9976 26.7883L74.7886 26.3704C75.181 26.1102 75.5861 25.978 76.0041 25.978C76.422 25.978 76.7163 26.0846 76.9423 26.2936C77.1683 26.5026 77.2835 26.8011 77.2835 27.1849V28.2895C77.2835 28.3577 77.2962 28.4089 77.3218 28.443C77.3474 28.4771 77.3901 28.4942 77.4455 28.4942V28.9931C77.3474 29.0102 77.2579 29.023 77.1811 29.023C77.0574 29.023 76.9593 28.9931 76.8868 28.9334C76.8143 28.8737 76.7717 28.797 76.7632 28.7031L76.7461 28.5325C76.6182 28.6946 76.4561 28.8225 76.2557 28.9164C76.0595 29.0059 75.8548 29.0528 75.6458 29.0528C75.3516 29.0528 75.1085 28.9633 74.9166 28.7884C74.7247 28.6136 74.6266 28.3918 74.6266 28.1317M76.5244 28.3108C76.6224 28.2127 76.6736 28.1189 76.6736 28.0336V27.6924C76.4561 27.6114 76.2301 27.5687 75.9913 27.5687C75.7525 27.5687 75.5776 27.6156 75.4369 27.7052C75.2961 27.799 75.2236 27.9227 75.2236 28.0762C75.2236 28.217 75.2791 28.3364 75.3857 28.4387C75.4923 28.5411 75.6416 28.5923 75.8292 28.5923C75.9572 28.5923 76.0851 28.5667 76.2088 28.5112C76.3324 28.46 76.4391 28.3918 76.5201 28.3065" fill="black"/>
<path d="M79.3644 29.0483C79.0659 29.0483 78.7972 28.9758 78.5626 28.8351C78.3238 28.6944 78.1447 28.5067 78.021 28.2722C77.8973 28.0376 77.8334 27.7817 77.8334 27.5088C77.8334 27.2998 77.8718 27.1037 77.9443 26.9203C78.0168 26.7326 78.1191 26.5706 78.2513 26.4341C78.3835 26.2934 78.5456 26.1868 78.7375 26.1057C78.9294 26.0247 79.1426 25.9863 79.3686 25.9863C79.6672 25.9863 79.9273 26.0503 80.1491 26.1868C80.3708 26.319 80.5372 26.4981 80.6523 26.7241L80.0467 26.916C79.9785 26.7923 79.8804 26.6985 79.761 26.626C79.6373 26.5578 79.5051 26.5194 79.3559 26.5194C79.1042 26.5194 78.8953 26.6132 78.7247 26.8009C78.5584 26.9885 78.4731 27.2273 78.4731 27.5173C78.4731 27.8073 78.5584 28.0419 78.7332 28.2338C78.9081 28.43 79.117 28.5238 79.3601 28.5238C79.5136 28.5238 79.6586 28.4854 79.7908 28.4044C79.9273 28.3276 80.0169 28.2295 80.0638 28.1144L80.6779 28.2935C80.5798 28.5195 80.4135 28.7029 80.1789 28.8436C79.9444 28.9844 79.6757 29.0526 79.3729 29.0526" fill="black"/>
<path d="M81.1652 24.8604H81.7878V25.547H81.1652V24.8604ZM81.1652 26.0331H81.7878V28.9928H81.1652V26.0331Z" fill="black"/>
<path d="M82.4262 28.1016C82.3537 27.9139 82.3196 27.722 82.3196 27.5173C82.3196 27.3126 82.358 27.1165 82.4305 26.9331C82.503 26.7454 82.6053 26.5834 82.7333 26.4426C82.8612 26.3019 83.0232 26.191 83.2152 26.11C83.4071 26.029 83.616 25.9863 83.8378 25.9863C84.1363 25.9863 84.405 26.0588 84.6395 26.1996C84.8741 26.3403 85.0532 26.5279 85.1769 26.7625C85.3006 26.9928 85.3603 27.2487 85.3603 27.5216C85.3603 27.7945 85.3006 28.0504 85.1769 28.2807C85.0532 28.511 84.8741 28.6986 84.6395 28.8436C84.405 28.9844 84.1363 29.0569 83.8378 29.0569C83.6118 29.0569 83.4028 29.0142 83.2109 28.9332C83.019 28.8522 82.8569 28.737 82.729 28.6006C82.601 28.4598 82.4987 28.2978 82.4262 28.1101M83.2109 28.2338C83.3815 28.4214 83.5904 28.5195 83.8378 28.5195C84.0851 28.5195 84.2941 28.4214 84.4647 28.2295C84.6353 28.0376 84.7206 27.7988 84.7206 27.5173C84.7206 27.2359 84.6353 26.997 84.4647 26.8051C84.2941 26.6132 84.0851 26.5151 83.8378 26.5151C83.5904 26.5151 83.3857 26.6132 83.2152 26.8094C83.0446 27.0056 82.9593 27.2444 82.9593 27.5259C82.9593 27.8073 83.0446 28.0461 83.2152 28.2381" fill="black"/>
<path d="M88.5471 28.9931H87.9245V27.3342C87.9245 27.0612 87.8819 26.8565 87.7923 26.7286C87.7027 26.6007 87.5748 26.5367 87.3999 26.5367C87.2251 26.5367 87.0417 26.6049 86.8711 26.7371C86.7005 26.8693 86.5811 27.0357 86.5172 27.2318V28.9931H85.8945V26.0335H86.4617V26.6263C86.5769 26.4258 86.7389 26.268 86.9564 26.1529C87.1739 26.0377 87.4085 25.978 87.6686 25.978C87.8051 25.978 87.9288 25.9993 88.0311 26.042C88.1335 26.0846 88.2188 26.1401 88.287 26.2126C88.351 26.2851 88.4064 26.3746 88.4448 26.4813C88.4874 26.5879 88.513 26.6988 88.5301 26.8096C88.5471 26.9205 88.5557 27.0485 88.5557 27.1892V28.9931H88.5471Z" fill="black"/>
<path d="M89.0333 28.1274C89.0333 27.8459 89.1527 27.6199 89.383 27.4451C89.6176 27.2745 89.9204 27.1892 90.2956 27.1892C90.5942 27.1892 90.8543 27.2276 91.0675 27.3086V27.121C91.0675 26.912 91.0036 26.7499 90.8756 26.6305C90.7477 26.5154 90.5686 26.4557 90.3383 26.4557C90.1805 26.4557 90.027 26.4813 89.8777 26.5367C89.7284 26.5921 89.5707 26.6774 89.3958 26.7883L89.1868 26.3704C89.5792 26.1102 89.9843 25.978 90.4023 25.978C90.8202 25.978 91.1145 26.0846 91.3405 26.2936C91.5665 26.5026 91.6816 26.8011 91.6816 27.1849V28.2895C91.6816 28.3577 91.6944 28.4089 91.72 28.443C91.7456 28.4771 91.7883 28.4942 91.8437 28.4942V28.9931C91.7456 29.0102 91.6561 29.023 91.5793 29.023C91.4556 29.023 91.3575 28.9931 91.285 28.9334C91.2125 28.8737 91.1699 28.797 91.1614 28.7031L91.1443 28.5325C91.0164 28.6946 90.8543 28.8225 90.6539 28.9164C90.4577 29.0059 90.253 29.0528 90.044 29.0528C89.7498 29.0528 89.5067 28.9633 89.3148 28.7884C89.1229 28.6136 89.0248 28.3918 89.0248 28.1317M90.9183 28.3108C91.0164 28.2127 91.0675 28.1189 91.0675 28.0336V27.6924C90.85 27.6114 90.624 27.5687 90.3852 27.5687C90.1464 27.5687 89.9715 27.6156 89.8308 27.7052C89.6901 27.799 89.6176 27.9227 89.6176 28.0762C89.6176 28.217 89.673 28.3364 89.7796 28.4387C89.8862 28.5411 90.0355 28.5923 90.2231 28.5923C90.3511 28.5923 90.479 28.5667 90.6027 28.5112C90.7264 28.46 90.833 28.3918 90.914 28.3065" fill="black"/>
<path d="M92.4231 24.8604H93.0457V28.1399C93.0457 28.2806 93.0671 28.3744 93.1054 28.4213C93.1438 28.4682 93.2078 28.4896 93.2846 28.4896C93.4253 28.4896 93.5532 28.464 93.6684 28.4085L93.7579 28.9032C93.6684 28.9416 93.5618 28.9757 93.4381 29.0013C93.3144 29.0269 93.2035 29.0397 93.1012 29.0397C92.8879 29.0397 92.7216 28.98 92.6022 28.8649C92.4828 28.7454 92.4231 28.5834 92.4231 28.3702V24.8646V24.8604Z" fill="black"/>
<path d="M51.9773 34.3068C51.9773 34.0253 52.0327 33.7694 52.1436 33.5349C52.2545 33.3003 52.4166 33.1169 52.6213 32.9762C52.826 32.8397 53.0563 32.7672 53.3121 32.7672C53.5296 32.7672 53.7343 32.8227 53.9177 32.9378C54.1011 33.053 54.2461 33.198 54.3527 33.3813V31.6499H54.9753V35.0787C54.9753 35.1512 54.9881 35.2023 55.0137 35.2322C55.0393 35.2621 55.082 35.2791 55.1417 35.2834V35.7823C55.035 35.7994 54.9412 35.8122 54.873 35.8122C54.7578 35.8122 54.6598 35.7781 54.5787 35.7141C54.4977 35.6501 54.4551 35.5648 54.4508 35.4668V35.245C54.3314 35.4326 54.1821 35.5776 53.9902 35.68C53.8026 35.7866 53.5979 35.8378 53.3846 35.8378C53.116 35.8378 52.8771 35.7695 52.6596 35.6288C52.4421 35.4881 52.2758 35.3047 52.1564 35.0701C52.037 34.8356 51.9773 34.5797 51.9773 34.3025M54.357 34.7247V33.9485C54.293 33.7694 54.1779 33.6202 54.0073 33.4965C53.8409 33.3728 53.6704 33.3131 53.4998 33.3131C53.3292 33.3131 53.1799 33.36 53.0435 33.4581C52.907 33.5562 52.8046 33.6799 52.7321 33.8334C52.6596 33.9869 52.6255 34.1532 52.6255 34.3281C52.6255 34.601 52.7151 34.8356 52.8899 35.0275C53.069 35.2194 53.2865 35.3175 53.5467 35.3175C53.713 35.3175 53.8793 35.2578 54.0456 35.1426C54.212 35.0275 54.3143 34.891 54.357 34.729" fill="black"/>
<path d="M55.5292 34.9204C55.5292 34.6389 55.6486 34.4129 55.8789 34.238C56.1134 34.0674 56.4162 33.9822 56.7915 33.9822C57.09 33.9822 57.3502 34.0205 57.5634 34.1016V33.9139C57.5634 33.705 57.4994 33.5429 57.3715 33.4235C57.2435 33.3083 57.0644 33.2486 56.8341 33.2486C56.6763 33.2486 56.5228 33.2742 56.3736 33.3297C56.2243 33.3851 56.0665 33.4704 55.8917 33.5813L55.6827 33.1633C56.075 32.9032 56.4802 32.771 56.8981 32.771C57.316 32.771 57.6103 32.8776 57.8363 33.0866C58.0624 33.2955 58.1775 33.5941 58.1775 33.9779V35.0824C58.1775 35.1507 58.1903 35.2018 58.2159 35.236C58.2415 35.2701 58.2841 35.2871 58.3396 35.2871V35.7861C58.2415 35.8032 58.1519 35.8159 58.0751 35.8159C57.9515 35.8159 57.8534 35.7861 57.7809 35.7264C57.7084 35.6667 57.6657 35.5899 57.6572 35.4961L57.6402 35.3255C57.5122 35.4876 57.3502 35.6155 57.1497 35.7093C56.9535 35.7989 56.7488 35.8458 56.5399 35.8458C56.2456 35.8458 56.0025 35.7562 55.8106 35.5814C55.6187 35.4065 55.5206 35.1848 55.5206 34.9246M57.4141 35.1038C57.5122 35.0057 57.5634 34.9118 57.5634 34.8266V34.4854C57.3459 34.4044 57.1199 34.3617 56.8811 34.3617C56.6422 34.3617 56.4674 34.4086 56.3266 34.4982C56.1859 34.592 56.1134 34.7157 56.1134 34.8692C56.1134 35.0099 56.1689 35.1293 56.2755 35.2317C56.3821 35.334 56.5313 35.3852 56.719 35.3852C56.8469 35.3852 56.9749 35.3596 57.0985 35.3042C57.2222 35.253 57.3288 35.1848 57.4099 35.0995" fill="black"/>
<path d="M62.0631 31.7476C62.4128 31.7476 62.7241 31.8286 62.9928 31.9864C63.2572 32.1442 63.4576 32.3574 63.5941 32.6218L63.0951 32.9544C63.0397 32.8393 62.9757 32.737 62.8947 32.6517C62.8137 32.5664 62.7241 32.4981 62.6303 32.4512C62.5365 32.4043 62.4384 32.3702 62.3403 32.3489C62.2422 32.3275 62.1441 32.3148 62.0418 32.3148C61.8797 32.3148 61.7262 32.3446 61.5897 32.4C61.449 32.4555 61.3296 32.5323 61.2315 32.6261C61.1334 32.7199 61.0438 32.8308 60.9756 32.9544C60.9031 33.0781 60.8519 33.2103 60.8178 33.3511C60.7837 33.4875 60.7666 33.6283 60.7666 33.7733C60.7666 34.0334 60.8221 34.2765 60.933 34.5025C61.0438 34.7285 61.1974 34.9077 61.3978 35.0441C61.5982 35.1806 61.82 35.2488 62.0631 35.2488C62.2038 35.2488 62.336 35.2275 62.4682 35.1849C62.6004 35.1422 62.7284 35.0697 62.8478 34.9674C62.9714 34.865 63.0653 34.7413 63.1292 34.5921L63.6581 34.8906C63.5813 35.0825 63.4491 35.2531 63.27 35.3981C63.0909 35.5431 62.8947 35.6497 62.6815 35.7222C62.4682 35.7947 62.2507 35.8288 62.0375 35.8288C61.7646 35.8288 61.5087 35.7691 61.2656 35.6497C61.0225 35.5303 60.8178 35.3725 60.6558 35.1763C60.4894 34.9802 60.3615 34.7584 60.2634 34.511C60.1696 34.2637 60.1184 34.0121 60.1184 33.7562C60.1184 33.56 60.144 33.3681 60.1994 33.1762C60.2549 32.9843 60.3359 32.8009 60.451 32.6303C60.5619 32.4598 60.6941 32.3105 60.8477 32.1783C61.0012 32.0461 61.1846 31.9437 61.3935 31.867C61.6025 31.7902 61.8285 31.7518 62.0631 31.7518" fill="black"/>
<path d="M64.1099 34.6391V32.8267H64.7325V34.5112C64.7325 34.7756 64.7794 34.9718 64.8775 35.1082C64.9756 35.2447 65.1163 35.3087 65.2997 35.3087C65.4831 35.3087 65.6494 35.2532 65.8072 35.1424C65.965 35.0315 66.0844 34.8737 66.1697 34.6732V32.8267H66.7966V35.0869C66.7966 35.1594 66.8094 35.2106 66.835 35.2404C66.8606 35.2703 66.9032 35.2874 66.9629 35.2916V35.7906C66.8563 35.8076 66.7625 35.8204 66.6857 35.8204C66.5706 35.8204 66.4767 35.7906 66.4 35.7266C66.3232 35.6626 66.2806 35.5859 66.272 35.4835L66.2635 35.1893C66.1313 35.4025 65.9607 35.5646 65.7517 35.6754C65.5428 35.7863 65.3082 35.846 65.0523 35.846C64.7453 35.846 64.5107 35.7437 64.3529 35.539C64.1952 35.3343 64.1141 35.0357 64.1141 34.6391" fill="black"/>
<path d="M67.5682 31.6538H68.1909V34.9333C68.1909 35.074 68.2122 35.1679 68.2506 35.2148C68.289 35.2617 68.3529 35.2873 68.4297 35.2873C68.5704 35.2873 68.6984 35.2617 68.8135 35.2063L68.9031 35.701C68.8135 35.7393 68.7069 35.7735 68.5832 35.799C68.4595 35.8246 68.3487 35.8374 68.2463 35.8374C68.0331 35.8374 67.8668 35.7777 67.7474 35.6583C67.6279 35.5389 67.5682 35.3768 67.5682 35.1636V31.6581V31.6538Z" fill="black"/>
<path d="M70.8908 35.6369C70.6136 35.7691 70.3578 35.833 70.1189 35.833C69.91 35.833 69.7351 35.7776 69.5986 35.6667C69.4622 35.5558 69.3939 35.3853 69.3939 35.1635V33.3126H69.0059V32.8307H69.3939V31.8584H70.0166V32.8307H70.6605V33.3126H70.0166V34.9673C70.0208 35.0654 70.055 35.1422 70.1104 35.1933C70.1658 35.2445 70.2426 35.2701 70.3322 35.2701C70.4644 35.2701 70.6051 35.2317 70.7586 35.1507L70.8866 35.6411L70.8908 35.6369Z" fill="black"/>
<path d="M71.2665 34.6391V32.8267H71.8891V34.5112C71.8891 34.7756 71.936 34.9718 72.0341 35.1082C72.1322 35.2447 72.2729 35.3087 72.4563 35.3087C72.6397 35.3087 72.806 35.2532 72.9638 35.1424C73.1216 35.0315 73.241 34.8737 73.3263 34.6732V32.8267H73.9532V35.0869C73.9532 35.1594 73.966 35.2106 73.9916 35.2404C74.0172 35.2703 74.0598 35.2874 74.1195 35.2916V35.7906C74.0129 35.8076 73.9191 35.8204 73.8423 35.8204C73.7272 35.8204 73.6334 35.7906 73.5566 35.7266C73.4798 35.6626 73.4372 35.5859 73.4286 35.4835L73.4201 35.1893C73.2879 35.4025 73.1173 35.5646 72.9084 35.6754C72.6994 35.7863 72.4648 35.846 72.209 35.846C71.9019 35.846 71.6674 35.7437 71.5096 35.539C71.3518 35.3343 71.2707 35.0357 71.2707 34.6391" fill="black"/>
<path d="M76.3831 33.3638C76.14 33.3681 75.9267 33.4278 75.7391 33.5344C75.5515 33.641 75.4192 33.7903 75.3425 33.978V35.7904H74.7198V32.8308H75.2956V33.496C75.3979 33.2913 75.5344 33.1293 75.6964 33.0056C75.8628 32.8819 76.0376 32.8137 76.2253 32.8052C76.302 32.8052 76.3575 32.8052 76.3831 32.8094V33.3681V33.3638Z" fill="black"/>
<path d="M76.5975 34.9204C76.5975 34.6389 76.7169 34.4129 76.9472 34.238C77.1818 34.0674 77.4846 33.9822 77.8599 33.9822C78.1584 33.9822 78.4185 34.0205 78.6318 34.1016V33.9139C78.6318 33.705 78.5678 33.5429 78.4398 33.4235C78.3119 33.3083 78.1328 33.2486 77.9025 33.2486C77.7447 33.2486 77.5912 33.2742 77.4419 33.3297C77.2927 33.3851 77.1349 33.4704 76.96 33.5813L76.751 33.1633C77.1434 32.9032 77.5485 32.771 77.9665 32.771C78.3844 32.771 78.6787 32.8776 78.9047 33.0866C79.1307 33.2955 79.2459 33.5941 79.2459 33.9779V35.0824C79.2459 35.1507 79.2587 35.2018 79.2842 35.236C79.3098 35.2701 79.3525 35.2871 79.4079 35.2871V35.7861C79.3098 35.8032 79.2203 35.8159 79.1435 35.8159C79.0198 35.8159 78.9217 35.7861 78.8492 35.7264C78.7768 35.6667 78.7341 35.5899 78.7256 35.4961L78.7085 35.3255C78.5806 35.4876 78.4185 35.6155 78.2181 35.7093C78.0219 35.7989 77.8172 35.8458 77.6082 35.8458C77.314 35.8458 77.0709 35.7562 76.879 35.5814C76.6871 35.4065 76.589 35.1848 76.589 34.9246M78.4825 35.1038C78.5806 35.0057 78.6318 34.9118 78.6318 34.8266V34.4854C78.4143 34.4044 78.1882 34.3617 77.9494 34.3617C77.7106 34.3617 77.5357 34.4086 77.395 34.4982C77.2543 34.592 77.1818 34.7157 77.1818 34.8692C77.1818 35.0099 77.2372 35.1293 77.3438 35.2317C77.4504 35.334 77.5997 35.3852 77.7874 35.3852C77.9153 35.3852 78.0432 35.3596 78.1669 35.3042C78.2906 35.253 78.3972 35.1848 78.4782 35.0995" fill="black"/>
</g>
</g>
</g>
<defs>
<clipPath id="clip0_2664_4959">
<rect width="102" height="52" fill="white"/>
</clipPath>
<clipPath id="clip1_2664_4959">
<rect width="102.223" height="46.395" fill="white" transform="translate(0 3)"/>
</clipPath>
</defs>
</svg>
