<svg width="208" height="52" viewBox="0 0 208 52" fill="none" xmlns="http://www.w3.org/2000/svg">
<g clip-path="url(#clip0_2664_5019)">
<path d="M191.325 23.8378H190.933C190.909 23.7249 190.869 23.6257 190.811 23.5403C190.754 23.4548 190.684 23.383 190.602 23.325C190.521 23.2659 190.43 23.2216 190.331 23.1921C190.232 23.1625 190.129 23.1477 190.021 23.1477C189.825 23.1477 189.647 23.1973 189.488 23.2965C189.329 23.3957 189.203 23.5419 189.109 23.735C189.016 23.9281 188.97 24.1649 188.97 24.4456C188.97 24.7263 189.016 24.9632 189.109 25.1563C189.203 25.3494 189.329 25.4955 189.488 25.5947C189.647 25.6939 189.825 25.7435 190.021 25.7435C190.129 25.7435 190.232 25.7287 190.331 25.6992C190.43 25.6697 190.521 25.6259 190.602 25.5678C190.684 25.5087 190.754 25.4365 190.811 25.351C190.869 25.2645 190.909 25.1653 190.933 25.0534H191.325C191.296 25.2191 191.242 25.3673 191.164 25.4982C191.086 25.629 190.989 25.7404 190.873 25.8322C190.756 25.9229 190.626 25.992 190.482 26.0395C190.338 26.087 190.185 26.1107 190.021 26.1107C189.745 26.1107 189.499 26.0432 189.283 25.9081C189.068 25.7731 188.899 25.581 188.775 25.332C188.652 25.083 188.59 24.7875 188.59 24.4456C188.59 24.1037 188.652 23.8083 188.775 23.5593C188.899 23.3102 189.068 23.1182 189.283 22.9831C189.499 22.8481 189.745 22.7805 190.021 22.7805C190.185 22.7805 190.338 22.8043 190.482 22.8518C190.626 22.8992 190.756 22.9689 190.873 23.0607C190.989 23.1514 191.086 23.2622 191.164 23.3931C191.242 23.5229 191.296 23.6711 191.325 23.8378ZM193.441 25.0724V23.6352H193.815V26.0664H193.441V25.6549H193.416C193.359 25.7783 193.27 25.8833 193.15 25.9699C193.029 26.0553 192.878 26.0981 192.694 26.0981C192.542 26.0981 192.407 26.0648 192.289 25.9983C192.171 25.9308 192.078 25.8295 192.01 25.6945C191.943 25.5583 191.909 25.3869 191.909 25.18V23.6352H192.282V25.1547C192.282 25.332 192.332 25.4734 192.431 25.5789C192.531 25.6844 192.659 25.7372 192.814 25.7372C192.907 25.7372 193.002 25.7134 193.098 25.666C193.195 25.6185 193.276 25.5457 193.341 25.4475C193.408 25.3494 193.441 25.2244 193.441 25.0724ZM194.872 22.8248V26.0664H194.499V22.8248H194.872ZM196.614 23.6352V23.9518H195.354V23.6352H196.614ZM195.721 23.0528H196.095V25.37C196.095 25.4755 196.11 25.5546 196.14 25.6074C196.172 25.6591 196.212 25.6939 196.261 25.7119C196.31 25.7287 196.363 25.7372 196.417 25.7372C196.459 25.7372 196.492 25.7351 196.519 25.7309C196.545 25.7256 196.566 25.7214 196.582 25.7182L196.658 26.0537C196.633 26.0632 196.597 26.0727 196.552 26.0822C196.507 26.0928 196.449 26.0981 196.379 26.0981C196.274 26.0981 196.171 26.0754 196.069 26.03C195.969 25.9846 195.886 25.9155 195.819 25.8227C195.754 25.7298 195.721 25.6127 195.721 25.4713V23.0528ZM198.708 25.0724V23.6352H199.081V26.0664H198.708V25.6549H198.682C198.625 25.7783 198.537 25.8833 198.416 25.9699C198.296 26.0553 198.144 26.0981 197.961 26.0981C197.809 26.0981 197.674 26.0648 197.555 25.9983C197.437 25.9308 197.344 25.8295 197.277 25.6945C197.209 25.5583 197.176 25.3869 197.176 25.18V23.6352H197.549V25.1547C197.549 25.332 197.599 25.4734 197.698 25.5789C197.798 25.6844 197.926 25.7372 198.081 25.7372C198.174 25.7372 198.268 25.7134 198.364 25.666C198.461 25.6185 198.543 25.5457 198.608 25.4475C198.674 25.3494 198.708 25.2244 198.708 25.0724ZM199.765 26.0664V23.6352H200.126V24.0024H200.152C200.196 23.8822 200.276 23.7845 200.392 23.7096C200.508 23.6347 200.639 23.5973 200.785 23.5973C200.812 23.5973 200.846 23.5978 200.888 23.5988C200.929 23.5999 200.96 23.6015 200.981 23.6036V23.9835C200.968 23.9803 200.939 23.9755 200.894 23.9692C200.85 23.9618 200.803 23.9581 200.753 23.9581C200.635 23.9581 200.529 23.9829 200.437 24.0325C200.345 24.0811 200.272 24.1486 200.218 24.2351C200.165 24.3206 200.139 24.4182 200.139 24.5279V26.0664H199.765ZM202.139 26.1234C201.985 26.1234 201.845 26.0944 201.72 26.0363C201.594 25.9772 201.495 25.8923 201.421 25.7815C201.347 25.6697 201.31 25.5346 201.31 25.3763C201.31 25.237 201.337 25.1241 201.392 25.0376C201.447 24.95 201.52 24.8814 201.612 24.8318C201.704 24.7822 201.805 24.7453 201.916 24.721C202.028 24.6957 202.14 24.6757 202.253 24.6609C202.401 24.6419 202.521 24.6276 202.612 24.6182C202.705 24.6076 202.773 24.5902 202.815 24.5659C202.858 24.5416 202.88 24.4994 202.88 24.4393V24.4266C202.88 24.2705 202.837 24.1491 202.752 24.0626C202.667 23.9761 202.539 23.9328 202.367 23.9328C202.189 23.9328 202.049 23.9718 201.948 24.0499C201.846 24.128 201.775 24.2114 201.734 24.3L201.379 24.1734C201.443 24.0257 201.527 23.9106 201.633 23.8283C201.739 23.745 201.855 23.6869 201.981 23.6542C202.108 23.6205 202.232 23.6036 202.354 23.6036C202.433 23.6036 202.522 23.6131 202.624 23.6321C202.726 23.65 202.825 23.6875 202.92 23.7444C203.016 23.8014 203.095 23.8874 203.159 24.0024C203.222 24.1175 203.254 24.2715 203.254 24.4646V26.0664H202.88V25.7372H202.861C202.836 25.7899 202.793 25.8464 202.734 25.9065C202.675 25.9667 202.597 26.0179 202.499 26.0601C202.4 26.1023 202.281 26.1234 202.139 26.1234ZM202.196 25.7878C202.344 25.7878 202.468 25.7588 202.57 25.7008C202.672 25.6427 202.749 25.5678 202.801 25.476C202.854 25.3842 202.88 25.2877 202.88 25.1864V24.8445C202.864 24.8635 202.829 24.8809 202.776 24.8967C202.723 24.9115 202.662 24.9247 202.592 24.9363C202.523 24.9468 202.456 24.9563 202.391 24.9648C202.327 24.9722 202.274 24.9785 202.234 24.9838C202.137 24.9964 202.046 25.017 201.962 25.0455C201.879 25.0729 201.811 25.1146 201.759 25.1705C201.709 25.2254 201.683 25.3003 201.683 25.3953C201.683 25.5251 201.731 25.6232 201.827 25.6897C201.924 25.7551 202.047 25.7878 202.196 25.7878Z" fill="#273556"/>
<path d="M179.587 14H179.262V38.1382H179.587V14Z" fill="#273556"/>
<path d="M147.039 37.7161V21.005C147.039 20.9238 147.104 20.8589 147.185 20.8589H151.397C151.478 20.8589 151.543 20.9238 151.543 21.005V37.7161C151.543 37.7973 151.478 37.8623 151.397 37.8623H147.185C147.104 37.8623 147.039 37.7973 147.039 37.7161Z" fill="#273556"/>
<path d="M161.356 20.5664C156.506 20.5664 152.57 24.5019 152.57 29.3523C152.57 34.2027 156.506 38.1382 161.356 38.1382C166.207 38.1382 170.142 34.2027 170.142 29.3523C170.142 24.5019 166.207 20.5664 161.356 20.5664ZM161.356 33.7263C158.936 33.7263 156.977 31.7667 156.977 29.3469C156.977 26.9271 158.936 24.9675 161.356 24.9675C163.776 24.9675 165.736 26.9271 165.736 29.3469C165.736 31.7667 163.776 33.7263 161.356 33.7263Z" fill="#273556"/>
<path d="M140.869 37.7811L138.097 32.1836C138.07 32.1349 138.022 32.1024 137.962 32.1024H135.959C135.878 32.1024 135.813 32.1674 135.813 32.2486V37.7161C135.813 37.7973 135.748 37.8623 135.667 37.8623H131.58C131.499 37.8623 131.434 37.7973 131.434 37.7161V21.005C131.434 20.9238 131.499 20.8589 131.58 20.8589H139.949C143.722 20.8589 145.866 23.3599 145.866 26.5213C145.866 29.3795 144.171 30.9548 142.634 31.5611C142.553 31.5936 142.515 31.691 142.558 31.7722L145.822 37.6511C145.876 37.7486 145.806 37.8731 145.692 37.8731H141.015C140.961 37.8731 140.907 37.8406 140.88 37.7919L140.869 37.7811ZM139.278 24.5508H135.959C135.878 24.5508 135.813 24.6158 135.813 24.697V28.2265C135.813 28.3077 135.878 28.3726 135.959 28.3726H139.278C140.425 28.3726 141.394 27.631 141.394 26.4617C141.394 25.2924 140.425 24.5508 139.278 24.5508Z" fill="#273556"/>
<path d="M114.462 14.1678C114.706 14.2761 114.89 14.4331 115.025 14.6334C115.155 14.8337 115.22 15.0718 115.22 15.3479C115.22 15.624 115.155 15.8568 115.025 16.0571C114.896 16.2574 114.706 16.4144 114.462 16.5226C114.219 16.6309 113.932 16.685 113.607 16.685H112.974V17.6378H111.945V14H113.607C113.937 14 114.224 14.0541 114.462 14.1624V14.1678ZM114.019 15.7377C114.127 15.6457 114.181 15.5157 114.181 15.3479C114.181 15.1801 114.127 15.0448 114.019 14.9528C113.91 14.8607 113.753 14.812 113.542 14.812H112.968V15.8784H113.542C113.753 15.8784 113.91 15.8351 114.019 15.7431V15.7377Z" fill="#273556"/>
<path d="M119.787 16.6742H119.224V17.6378H118.195V14H119.857C120.187 14 120.474 14.0541 120.713 14.1624C120.956 14.2707 121.14 14.4277 121.276 14.628C121.405 14.8282 121.47 15.0664 121.47 15.3425C121.47 15.6186 121.411 15.8351 121.286 16.03C121.162 16.2249 120.989 16.3765 120.761 16.4901L121.546 17.6324H120.447L119.787 16.6688V16.6742ZM120.279 14.9528C120.171 14.8607 120.014 14.812 119.803 14.812H119.229V15.8784H119.803C120.014 15.8784 120.171 15.8351 120.279 15.7431C120.388 15.6511 120.442 15.5212 120.442 15.3533C120.442 15.1855 120.388 15.0502 120.279 14.9582V14.9528Z" fill="#273556"/>
<path d="M127.445 16.842V17.6378H124.527V14H127.38V14.7958H125.545V15.4075H127.158V16.1762H125.545V16.842H127.445Z" fill="#273556"/>
<path d="M131.529 14.7958V15.5969H133.136V16.3927H131.529V17.6378H130.5V14H133.353V14.7958H131.529Z" fill="#273556"/>
<path d="M139.234 16.842V17.6378H136.316V14H139.169V14.7958H137.334V15.4075H138.947V16.1762H137.334V16.842H139.234Z" fill="#273556"/>
<path d="M142.297 14H143.325V17.6378H142.297V14Z" fill="#273556"/>
<path d="M147.314 14.8174H146.199V14H149.458V14.8174H148.348V17.6378H147.32V14.8174H147.314Z" fill="#273556"/>
<path d="M152.684 17.2701C152.386 16.9778 152.234 16.561 152.234 16.0196V14.0059H153.263V15.9926C153.263 16.5718 153.496 16.8641 153.956 16.8641C154.416 16.8641 154.643 16.5718 154.643 15.9926V14.0059H155.656V16.0196C155.656 16.561 155.504 16.9778 155.206 17.2701C154.909 17.5624 154.486 17.714 153.945 17.714C153.404 17.714 152.987 17.5679 152.684 17.2701Z" fill="#273556"/>
<path d="M160.42 16.6742H159.857V17.6378H158.828V14H160.49C160.82 14 161.107 14.0541 161.345 14.1624C161.589 14.2707 161.773 14.4277 161.908 14.628C162.038 14.8282 162.103 15.0664 162.103 15.3425C162.103 15.6186 162.044 15.8351 161.919 16.03C161.795 16.2249 161.621 16.3765 161.394 16.4901L162.179 17.6324H161.08L160.42 16.6688V16.6742ZM160.907 14.9528C160.799 14.8607 160.642 14.812 160.43 14.812H159.857V15.8784H160.43C160.642 15.8784 160.799 15.8351 160.907 15.7431C161.015 15.6511 161.069 15.5212 161.069 15.3533C161.069 15.1855 161.015 15.0502 160.907 14.9582V14.9528Z" fill="#273556"/>
<path d="M167.589 16.9345H166.052L165.765 17.6436H164.715L166.323 14.0059H167.335L168.948 17.6436H167.876L167.589 16.9345ZM167.292 16.1712L166.826 15.0073L166.36 16.1712H167.297H167.292Z" fill="#273556"/>
<path fill-rule="evenodd" clip-rule="evenodd" d="M115.537 37.5967C115.699 37.5534 115.872 37.5317 116.046 37.5317C116.533 37.5317 117.009 37.7212 117.366 38.0514H116.24C115.748 38.0514 115.282 37.9594 114.844 37.8024C114.871 37.7916 114.898 37.7862 114.93 37.7753C115.141 37.7104 115.336 37.6454 115.542 37.6021" fill="url(#paint0_linear_2664_5019)"/>
<path fill-rule="evenodd" clip-rule="evenodd" d="M124.693 37.5972C124.899 37.6405 125.094 37.7055 125.305 37.7705C125.332 37.7813 125.359 37.7867 125.386 37.7975C124.953 37.9599 124.482 38.0465 123.989 38.0465H122.863C123.221 37.7163 123.697 37.5269 124.184 37.5269C124.357 37.5269 124.525 37.5485 124.693 37.5918" fill="url(#paint1_linear_2664_5019)"/>
<path fill-rule="evenodd" clip-rule="evenodd" d="M111.047 28.5948C111.215 28.2484 111.491 27.994 111.821 27.8478C111.372 27.8316 110.933 27.6583 110.598 27.3389C110.636 27.301 110.679 27.2686 110.722 27.2361C111.182 26.8896 111.751 26.7814 112.276 26.9005C111.794 26.6081 111.431 26.1263 111.307 25.5525C111.366 25.5471 111.426 25.5363 111.491 25.5363C111.978 25.5146 112.438 25.6608 112.812 25.9261C112.568 25.4605 112.519 24.9029 112.709 24.3941C112.758 24.4157 112.806 24.4428 112.855 24.4699C113.066 24.589 113.245 24.7459 113.386 24.9246C113.364 24.5348 113.467 24.1396 113.694 23.8094C113.732 23.8419 113.77 23.8744 113.808 23.9123C113.959 24.0584 114.078 24.2317 114.165 24.4103C114.23 24.0422 114.419 23.7012 114.717 23.4521C114.744 23.49 114.771 23.5279 114.793 23.5712C115.199 24.2696 115.037 25.1465 114.441 25.65C114.414 25.6121 114.387 25.5742 114.365 25.5309C114.349 25.5038 114.333 25.4767 114.322 25.4497C114.284 25.7149 114.187 25.9694 114.03 26.1967C113.992 26.1642 113.954 26.1318 113.916 26.0939C113.873 26.0506 113.835 26.0073 113.792 25.9639C113.813 26.2346 113.781 26.5053 113.683 26.7705C113.635 26.7489 113.586 26.7218 113.537 26.6948C113.499 26.6731 113.467 26.6514 113.429 26.6298C113.526 26.8084 113.602 26.9979 113.651 27.2036C113.591 27.209 113.532 27.2144 113.472 27.2198C113.272 27.2307 113.072 27.209 112.882 27.1657C112.98 27.2253 113.077 27.301 113.164 27.3822C113.126 27.4201 113.082 27.4526 113.039 27.4851C112.893 27.5934 112.736 27.68 112.574 27.7449C112.671 27.7558 112.774 27.772 112.871 27.7991C112.855 27.8424 112.839 27.8803 112.817 27.9182C112.487 28.6057 111.713 28.9359 111.009 28.7356C111.025 28.6923 111.042 28.6544 111.058 28.6111" fill="url(#paint2_linear_2664_5019)"/>
<path fill-rule="evenodd" clip-rule="evenodd" d="M129.74 28.4542C129.734 28.3676 129.301 28.2648 128.987 28.2594C128.944 28.2594 128.895 28.2594 128.857 28.2594C128.96 28.1619 129.047 28.0482 128.987 28.0049C128.911 27.9454 128.624 28.0158 128.489 28.124C128.44 28.1565 128.408 28.1998 128.381 28.2377C128.397 28.1782 128.413 28.1132 128.413 28.0645C128.424 27.9995 128.381 27.8696 128.327 27.7397C128.354 27.7667 128.386 27.7884 128.424 27.8101C128.592 27.9075 128.911 27.9454 128.982 27.8588C129.03 27.7992 128.938 27.691 128.819 27.5989C128.852 27.5989 128.884 27.5989 128.922 27.5989C129.263 27.5719 129.712 27.3878 129.718 27.285C129.723 27.1821 129.274 27.1063 128.938 27.1388C128.89 27.1388 128.841 27.1496 128.798 27.1605C128.928 27.0305 129.036 26.8844 128.982 26.8356C128.911 26.7707 128.586 26.8952 128.424 27.0414C128.375 27.0847 128.337 27.128 128.305 27.1713C128.365 26.9872 128.397 26.8248 128.31 26.8411C128.159 26.8735 128.007 27.0089 127.894 27.1442C127.959 27.0197 128.013 26.906 128.007 26.8465C128.007 26.7923 127.926 26.7382 127.818 26.6895C128.018 26.6841 128.229 26.6354 128.386 26.5054C128.44 26.4567 128.386 26.3809 128.273 26.3106C128.273 26.3106 128.272 26.3106 128.278 26.3106C128.532 26.2618 128.895 26.0236 128.9 25.8829C128.9 25.7855 128.711 25.7638 128.511 25.7855C128.543 25.7584 128.576 25.7259 128.608 25.6934C128.933 25.3795 129.247 24.8273 129.16 24.7244C129.079 24.6216 128.554 24.9356 128.229 25.2495C128.18 25.2928 128.137 25.3416 128.099 25.3903C128.121 25.1575 128.11 24.9301 128.013 24.9301C127.883 24.9301 127.655 25.3199 127.612 25.5906C127.612 25.596 127.612 25.6014 127.612 25.6068C127.574 25.5094 127.542 25.4336 127.504 25.3903C127.466 25.3307 127.32 25.2928 127.157 25.282C127.201 25.2658 127.244 25.2441 127.293 25.2116C127.493 25.0817 127.704 24.7407 127.661 24.6162C127.623 24.5241 127.46 24.5729 127.298 24.6541C127.314 24.6162 127.331 24.5783 127.347 24.5404C127.504 24.1452 127.563 23.5389 127.455 23.4739C127.347 23.409 127.022 23.8691 126.865 24.2643C126.849 24.3022 126.838 24.3401 126.822 24.378C126.757 24.1831 126.67 24.0153 126.6 24.0478C126.492 24.0911 126.443 24.5187 126.508 24.784C126.519 24.8273 126.529 24.876 126.546 24.9139C126.432 24.7786 126.313 24.6649 126.253 24.6595H126.242C126.205 24.6703 126.14 24.7244 126.069 24.7948C126.08 24.7732 126.091 24.7461 126.102 24.719C126.172 24.5241 126.172 24.2048 126.102 24.156C126.048 24.1236 125.972 24.2481 125.907 24.3888C125.907 24.3563 125.901 24.3238 125.896 24.2914C125.847 23.9666 125.658 23.5768 125.577 23.5985C125.49 23.6201 125.468 24.0802 125.517 24.405C125.528 24.4538 125.533 24.4971 125.544 24.5404C125.425 24.4538 125.301 24.3834 125.263 24.4538C125.219 24.5404 125.344 24.8219 125.474 24.941C125.512 24.9735 125.55 25.0005 125.587 25.0222C125.436 25.0059 125.295 25.0222 125.322 25.1034C125.409 25.4065 125.896 25.6772 125.966 25.6555C126.015 25.6393 126.161 25.3524 126.242 25.0655C126.286 25.2658 126.367 25.4769 126.454 25.6393C126.313 25.4769 126.167 25.3578 126.14 25.4607C126.037 25.8558 126.356 26.4892 126.437 26.5271C126.481 26.5487 126.643 26.5271 126.816 26.4567C126.73 26.7599 126.703 27.0576 126.751 27.1009C126.795 27.1388 127.141 27.1767 127.471 27.1171C127.304 27.312 127.195 27.5394 127.195 27.5827C127.195 27.6585 127.563 28.1565 127.91 28.1511C127.991 28.1511 127.937 27.9562 127.856 27.783C127.937 27.875 128.04 27.967 128.153 28.032C127.937 28.1619 127.78 28.4109 127.785 28.4651C127.796 28.5354 128.17 28.9198 128.532 28.9469C128.614 28.9523 128.57 28.8278 128.489 28.6924C128.522 28.7249 128.565 28.752 128.614 28.779C128.781 28.8765 129.09 28.936 129.144 28.8765C129.187 28.8278 129.084 28.7303 128.955 28.6437C128.987 28.6437 129.02 28.6437 129.052 28.6437C129.366 28.6491 129.767 28.5409 129.761 28.4542H129.74ZM127.222 25.9749C127.147 25.9208 126.973 25.8937 126.811 25.8937C126.946 25.8667 127.119 25.8125 127.266 25.7097C127.244 25.7963 127.228 25.8883 127.222 25.9749Z" fill="url(#paint3_linear_2664_5019)"/>
<path fill-rule="evenodd" clip-rule="evenodd" d="M127.896 29.2819C128.129 29.1357 128.502 29.0275 128.551 29.1087C128.6 29.1899 128.367 29.4984 128.134 29.6446C128.112 29.6608 128.085 29.6717 128.064 29.6879C128.199 29.715 128.329 29.7583 128.323 29.8232C128.313 29.9153 128.058 30.0019 127.885 29.991C127.842 29.991 127.798 29.9802 127.76 29.9694C127.885 30.0668 127.977 30.1697 127.917 30.1967C127.793 30.2617 127.609 30.2346 127.446 30.1859C127.539 30.213 127.62 30.2563 127.668 30.3213C127.706 30.37 127.598 30.4133 127.474 30.4512C127.636 30.4566 127.831 30.4999 127.917 30.6082C127.955 30.6569 127.825 30.7164 127.679 30.7543C127.723 30.7543 127.766 30.7652 127.809 30.776C127.966 30.8193 128.156 30.9871 128.129 31.0683C128.112 31.1278 127.972 31.1224 127.836 31.0954C127.858 31.1224 127.874 31.1495 127.896 31.182C128.02 31.4039 128.107 31.7504 128.031 31.7937C127.955 31.837 127.679 31.6096 127.555 31.3877C127.544 31.366 127.533 31.3444 127.522 31.3173C127.495 31.4472 127.446 31.5609 127.387 31.5501C127.306 31.5393 127.23 31.3011 127.252 31.1387C127.252 31.0954 127.268 31.0575 127.279 31.025C127.187 31.1333 127.089 31.2145 127.068 31.1603C127.008 31.025 127.046 30.8409 127.1 30.6948C127.019 30.7976 126.938 30.868 126.911 30.8139C126.846 30.684 126.873 30.5053 126.921 30.3646C126.797 30.3483 126.699 30.3213 126.683 30.305C126.667 30.2834 126.683 30.2076 126.721 30.1101C126.564 30.0668 126.402 29.9802 126.304 29.8774C126.266 29.8395 126.38 29.8016 126.515 29.7799C126.364 29.5688 126.245 29.2332 126.32 29.179C126.391 29.1249 126.689 29.3306 126.84 29.5363C126.84 29.5363 126.851 29.5471 126.851 29.5526C126.905 29.401 126.986 29.2765 127.024 29.336C127.073 29.4172 127.105 29.5093 127.127 29.6013C127.154 29.4714 127.203 29.3414 127.284 29.2711C127.333 29.2278 127.403 29.3631 127.457 29.5255C127.457 29.4822 127.463 29.4335 127.474 29.3847C127.517 29.2115 127.69 29.0004 127.777 29.022C127.842 29.0383 127.842 29.1953 127.815 29.3414C127.842 29.3198 127.874 29.2981 127.907 29.2765" fill="url(#paint4_linear_2664_5019)"/>
<path fill-rule="evenodd" clip-rule="evenodd" d="M113.428 30.814C112.995 31.4419 112.183 31.653 111.512 31.3445C111.533 31.3066 111.555 31.2687 111.582 31.2308C111.901 30.7707 112.421 30.5325 112.946 30.5649C112.356 30.3971 111.901 29.9045 111.788 29.2928C111.837 29.2928 111.88 29.2874 111.929 29.282C112.551 29.282 113.098 29.623 113.379 30.1373C113.26 29.7367 113.368 29.2982 113.672 29.0005C113.693 29.0276 113.71 29.0492 113.731 29.0763C114.045 29.5256 113.991 30.1102 113.628 30.4946C113.628 30.4946 113.628 30.4946 113.623 30.5C113.563 30.5758 113.498 30.6949 113.498 30.6949C113.477 30.7328 113.455 30.7707 113.428 30.8085" fill="url(#paint5_linear_2664_5019)"/>
<path fill-rule="evenodd" clip-rule="evenodd" d="M112.983 36.2108C112.983 36.2108 112.934 36.2487 112.907 36.2704C112.479 35.6316 112.23 34.8629 112.23 34.0346C112.23 33.2064 112.485 32.4323 112.918 31.7881C112.452 32.8437 112.528 34.1267 113.156 35.4746C113.172 35.5017 113.178 35.5233 113.183 35.5395C113.21 35.6045 113.329 35.9564 112.988 36.2108" fill="url(#paint6_linear_2664_5019)"/>
<path fill-rule="evenodd" clip-rule="evenodd" d="M115.838 34.0731C115.773 33.9107 115.773 33.7483 115.838 33.5967C116.092 34.138 116.368 34.452 116.644 34.7118C116.552 34.6902 116.493 34.6631 116.455 34.6469L116.417 34.6306C116.163 34.5386 115.924 34.3112 115.832 34.0676" fill="url(#paint7_linear_2664_5019)"/>
<path fill-rule="evenodd" clip-rule="evenodd" d="M115.148 27.9609C115.089 28.0746 115.013 28.1829 114.932 28.2857C115.089 28.6051 115.284 29.1356 115.164 29.6337C115.089 29.9368 114.986 30.1804 114.894 30.3915C114.775 30.6622 114.677 30.9004 114.672 31.1873C114.672 31.2414 114.71 31.7828 115.246 31.7828H115.473C115.392 30.9383 115.776 30.4511 115.809 29.7528C115.836 29.1086 115.414 28.3182 115.148 27.9664" fill="url(#paint8_linear_2664_5019)"/>
<path fill-rule="evenodd" clip-rule="evenodd" d="M123.783 34.6469C123.745 34.6631 123.686 34.6902 123.594 34.7118C123.87 34.4466 124.146 34.138 124.4 33.5967C124.465 33.7483 124.465 33.9107 124.4 34.0731C124.308 34.3167 124.07 34.544 123.81 34.636L123.772 34.6523L123.783 34.6469Z" fill="url(#paint9_linear_2664_5019)"/>
<path fill-rule="evenodd" clip-rule="evenodd" d="M118.202 37.6512L117.904 37.3914C117.904 37.3914 117.894 37.3806 117.883 37.3697L117.184 36.7364C117.249 36.7039 117.32 36.6822 117.401 36.6822C117.666 36.6822 117.883 36.8988 117.883 37.164C117.883 37.2127 117.877 37.256 117.867 37.2939C117.867 37.2939 118.489 37.5863 119.009 37.0991C119.025 36.9908 119.036 36.8825 119.036 36.7743C119.036 35.762 118.218 34.9662 117.206 34.9445C116.659 34.9337 116.432 34.8146 116.367 34.793C115.891 34.6197 115.414 34.0297 115.717 33.4559C116.015 32.8983 116.107 32.357 116.096 31.9455H115.246C114.526 31.9455 114.499 31.1823 114.499 31.1823C114.499 30.6193 114.83 30.2674 114.992 29.5907C115.117 29.0765 114.857 28.5081 114.721 28.2645C115.057 27.8855 115.257 27.3875 115.257 26.8461C115.257 26.3806 115.111 25.9529 114.857 25.6011L113.909 26.8895C113.807 27.0519 113.834 27.2467 113.899 27.42C113.693 27.4254 113.487 27.4741 113.363 27.6365L112.448 28.8816C112.659 28.9519 112.881 28.9898 113.119 28.9898C113.59 28.9898 114.028 28.8383 114.38 28.5784C114.489 29.0602 114.499 29.7369 113.401 31.2743C112.085 33.1148 113.254 35.2802 113.336 35.4805C113.417 35.6808 113.455 36.0705 113.087 36.352C112.718 36.6335 111.695 37.2669 111.695 37.2669C111.695 37.2669 112.583 38.0681 113.904 37.8678C114.499 37.7757 114.992 37.5538 115.495 37.4401C115.669 37.3914 115.858 37.3697 116.048 37.3697C116.665 37.3697 117.222 37.635 117.612 38.0572H119.756C119.918 38.0572 120.043 37.9273 120.043 37.7703C120.043 37.727 120.032 37.6945 120.021 37.6566H118.202V37.6512Z" fill="url(#paint10_linear_2664_5019)"/>
<path fill-rule="evenodd" clip-rule="evenodd" d="M118.253 37.5263C118.253 37.5263 118.226 37.5047 118.215 37.4992C118.74 37.5263 119.076 37.1961 119.113 37.1582C119.352 37.2611 119.866 37.4992 119.866 37.4992H119.877C119.877 37.4992 119.904 37.5209 119.915 37.5263H118.247H118.253Z" fill="url(#paint11_linear_2664_5019)"/>
<path fill-rule="evenodd" clip-rule="evenodd" d="M121.23 35.8916C121.165 36.0161 121.116 36.1514 121.084 36.2922C120.775 36.3463 120.45 36.3788 120.125 36.3788C119.801 36.3788 119.476 36.3463 119.162 36.2922C119.129 36.1569 119.081 36.0215 119.016 35.897C119.367 35.9782 119.736 36.0215 120.115 36.0215C120.493 36.0215 120.872 35.9782 121.23 35.897" fill="url(#paint12_linear_2664_5019)"/>
<path fill-rule="evenodd" clip-rule="evenodd" d="M125.087 27.9615C124.828 28.3133 124.4 29.1037 124.427 29.7479C124.459 30.4462 124.844 30.9334 124.763 31.7779H124.99C125.526 31.7779 125.564 31.2366 125.564 31.1824C125.564 30.8955 125.461 30.6573 125.342 30.3867C125.25 30.1755 125.147 29.9319 125.071 29.6288C124.952 29.1308 125.147 28.6057 125.304 28.2809C125.223 28.178 125.147 28.0697 125.087 27.9561" fill="url(#paint13_linear_2664_5019)"/>
<path fill-rule="evenodd" clip-rule="evenodd" d="M127.085 35.4746C127.069 35.5017 127.063 35.5233 127.058 35.5395C127.031 35.6045 126.912 35.9564 127.253 36.2108C127.274 36.227 127.301 36.2487 127.328 36.2704C127.756 35.6316 128.011 34.8629 128.011 34.0346C128.011 33.2064 127.756 32.4323 127.323 31.7881C127.789 32.8437 127.713 34.1267 127.085 35.4746Z" fill="url(#paint14_linear_2664_5019)"/>
<path fill-rule="evenodd" clip-rule="evenodd" d="M126.897 35.4751C126.978 35.2748 128.148 33.1094 126.832 31.2689C125.733 29.7315 125.744 29.0548 125.852 28.5731C126.204 28.8329 126.643 28.9845 127.114 28.9845C127.346 28.9845 127.574 28.9466 127.785 28.8762L126.87 27.6311C126.745 27.4687 126.54 27.4254 126.334 27.4146C126.394 27.2468 126.421 27.0465 126.323 26.8841L125.376 25.5957C125.127 25.9476 124.975 26.3752 124.975 26.8408C124.975 27.3875 125.176 27.8856 125.511 28.2591C125.376 28.5081 125.116 29.0765 125.241 29.5853C125.403 30.2674 125.733 30.6193 125.733 31.1769C125.733 31.1769 125.706 31.9402 124.986 31.9402H124.136C124.125 32.3516 124.217 32.8929 124.515 33.4505C124.824 34.0243 124.342 34.6144 123.866 34.7876C123.801 34.8092 123.573 34.9338 123.026 34.9392C122.014 34.9608 121.197 35.7566 121.197 36.7689C121.197 36.8826 121.208 36.9908 121.229 37.0937C121.744 37.5809 122.371 37.2886 122.371 37.2886C122.361 37.2507 122.355 37.202 122.355 37.1586C122.355 36.8934 122.572 36.6769 122.837 36.6769C122.913 36.6769 122.989 36.6985 123.054 36.731L122.355 37.3644L122.334 37.386L122.036 37.6458H120.217C120.201 37.6783 120.195 37.7162 120.195 37.7595C120.195 37.9165 120.325 38.0464 120.482 38.0464H122.626C123.01 37.6242 123.568 37.3589 124.185 37.3589C124.374 37.3589 124.564 37.386 124.737 37.4293C125.241 37.543 125.733 37.7649 126.329 37.857C127.65 38.0573 128.537 37.2561 128.537 37.2561C128.537 37.2561 127.514 36.6227 127.146 36.3412C126.778 36.0651 126.816 35.67 126.897 35.4697" fill="url(#paint15_linear_2664_5019)"/>
<path fill-rule="evenodd" clip-rule="evenodd" d="M120.356 37.5047H120.367C120.367 37.5047 120.886 37.2611 121.119 37.1582C121.157 37.1961 121.493 37.5263 122.018 37.4992C122.007 37.4992 121.98 37.5263 121.98 37.5263H120.312C120.312 37.5263 120.334 37.5101 120.35 37.5047" fill="url(#paint16_linear_2664_5019)"/>
<path fill-rule="evenodd" clip-rule="evenodd" d="M120.341 28.5514C120.206 28.5135 120.038 28.4918 119.751 28.5135C119.448 28.5351 119.362 28.7192 119.356 28.7896C119.351 28.8599 119.324 29.136 119.611 29.0819C119.919 29.0278 120.136 29.109 120.136 29.109C120.136 29.109 120.195 29.1306 120.206 29.1468C120.238 29.1847 120.217 29.228 120.174 29.2118C120.174 29.2118 120.146 29.201 120.109 29.1847C120.022 29.1468 119.789 29.1144 119.589 29.1631C119.389 29.2118 119.026 29.4662 118.923 29.9047C118.82 30.3486 119.215 30.2349 119.437 30.2837C119.914 30.3865 120.184 30.9224 120.233 31.0036C120.282 31.0794 120.504 31.3934 120.769 31.2635C121.029 31.1281 120.986 30.89 120.948 30.6355C120.904 30.3811 120.991 29.9643 121.029 29.7315C121.24 28.7625 120.395 28.5676 120.341 28.5514ZM120.109 30.1158C119.919 30.1158 119.768 29.9589 119.768 29.7748C119.768 29.5907 119.919 29.4338 120.109 29.4338C120.298 29.4338 120.45 29.5907 120.45 29.7748C120.45 29.9589 120.298 30.1158 120.109 30.1158Z" fill="url(#paint17_linear_2664_5019)"/>
<path fill-rule="evenodd" clip-rule="evenodd" d="M122.764 32.9037L122.526 32.5898C122.526 32.5898 122.531 32.5898 122.537 32.5844C122.553 32.5681 122.569 32.5573 122.586 32.5411C122.64 32.4923 122.694 32.4382 122.748 32.3841C122.748 32.3841 122.775 32.3516 122.791 32.3408C122.791 32.3408 122.802 32.3299 122.802 32.3245C122.818 32.3083 122.829 32.2975 122.84 32.2812C122.84 32.2758 122.851 32.2704 122.856 32.265C122.867 32.2541 122.878 32.2379 122.894 32.2217C122.894 32.2163 122.905 32.2108 122.91 32.2C122.921 32.1892 122.937 32.1729 122.948 32.1567C122.948 32.1513 122.959 32.1459 122.965 32.135C122.975 32.1188 122.986 32.108 123.002 32.0917C123.002 32.0917 123.002 32.0917 123.008 32.0863C123.035 32.0484 123.062 32.0105 123.089 31.9781C123.1 31.9618 123.111 31.951 123.116 31.9348C123.122 31.9293 123.127 31.9185 123.132 31.9077C123.143 31.8914 123.149 31.8806 123.159 31.8644C123.165 31.8536 123.17 31.8481 123.176 31.8373C123.186 31.8265 123.192 31.8102 123.203 31.7994C123.208 31.7886 123.214 31.7778 123.224 31.7724C123.23 31.7561 123.241 31.7453 123.246 31.7345C123.251 31.7236 123.257 31.7128 123.262 31.702C123.268 31.6912 123.278 31.6749 123.284 31.6641C123.289 31.6533 123.3 31.6424 123.306 31.6316C123.311 31.6208 123.322 31.6045 123.327 31.5937C123.338 31.5775 123.349 31.5558 123.36 31.5396C123.365 31.5233 123.376 31.5071 123.381 31.4909C123.387 31.48 123.392 31.4638 123.403 31.453C123.408 31.4421 123.414 31.4259 123.419 31.4151C123.425 31.4042 123.43 31.388 123.435 31.3772C123.435 31.3664 123.446 31.3555 123.452 31.3393C123.457 31.3285 123.463 31.3122 123.468 31.3014C123.473 31.2906 123.479 31.2797 123.484 31.2635C123.49 31.2527 123.495 31.2364 123.5 31.2202C123.5 31.2094 123.511 31.1985 123.517 31.1823C123.522 31.1661 123.528 31.1552 123.533 31.139C123.533 31.1282 123.544 31.1173 123.544 31.1065C123.549 31.0849 123.56 31.0686 123.565 31.047C123.565 31.0361 123.571 31.0307 123.576 31.0199C123.582 30.9982 123.592 30.9766 123.598 30.9495C123.598 30.9387 123.598 30.9279 123.609 30.917C123.609 30.9008 123.62 30.8846 123.625 30.8683C123.625 30.8575 123.63 30.8467 123.636 30.8358C123.636 30.8196 123.647 30.8034 123.647 30.7871C123.647 30.7763 123.652 30.7655 123.657 30.7492C123.657 30.733 123.668 30.7168 123.668 30.7005C123.668 30.6897 123.668 30.6789 123.674 30.668C123.674 30.6518 123.679 30.6301 123.684 30.6193C123.684 30.6085 123.684 30.5977 123.69 30.5868C123.69 30.5652 123.695 30.5489 123.701 30.5273C123.701 30.5219 123.701 30.511 123.701 30.5056C123.706 30.4786 123.712 30.4515 123.717 30.419C123.717 30.4136 123.717 30.4028 123.717 30.3974C123.717 30.3757 123.722 30.3541 123.728 30.3324C123.728 30.3216 123.728 30.3107 123.728 30.2999C123.728 30.2837 123.733 30.262 123.733 30.2458C123.733 30.235 123.733 30.2241 123.733 30.2133C123.733 30.1971 123.733 30.1754 123.733 30.1592C123.733 30.1483 123.733 30.1375 123.733 30.1267C123.733 30.1105 123.733 30.0888 123.733 30.0726C123.733 30.0617 123.733 30.0509 123.733 30.0401C123.733 30.0184 123.733 30.0022 123.733 29.9805C123.733 29.9697 123.733 29.9589 123.733 29.9535C123.733 29.921 123.733 29.8939 123.733 29.8669C123.733 29.8344 123.733 29.8073 123.733 29.7802C123.733 29.7694 123.733 29.764 123.733 29.7532C123.733 29.7315 123.733 29.7153 123.733 29.6936C123.733 29.6828 123.733 29.672 123.733 29.6611C123.733 29.6449 123.733 29.6232 123.733 29.607C123.733 29.5962 123.733 29.5854 123.733 29.5691C123.733 29.5529 123.733 29.5366 123.733 29.515C123.733 29.5042 123.733 29.4933 123.733 29.4825C123.733 29.4663 123.733 29.4446 123.728 29.4284C123.728 29.4175 123.728 29.4067 123.728 29.3959C123.728 29.3742 123.722 29.3526 123.717 29.3309C123.717 29.3255 123.717 29.3147 123.717 29.3093C123.717 29.2822 123.706 29.2551 123.701 29.2227C123.701 29.2118 123.701 29.2064 123.701 29.1956C123.701 29.1794 123.695 29.1577 123.69 29.136C123.69 29.1252 123.69 29.1144 123.684 29.1036C123.684 29.0873 123.674 29.0711 123.674 29.0548C123.674 29.044 123.674 29.0332 123.668 29.017C123.668 29.0007 123.657 28.9845 123.657 28.9682C123.657 28.9574 123.652 28.9466 123.647 28.9358C123.647 28.9195 123.636 28.9033 123.636 28.887C123.636 28.8762 123.63 28.8654 123.625 28.8546C123.625 28.8383 123.614 28.8221 123.609 28.8058C123.609 28.795 123.603 28.7842 123.598 28.7734C123.592 28.7517 123.582 28.73 123.576 28.703C123.576 28.6922 123.571 28.6867 123.565 28.6759C123.56 28.6543 123.549 28.6326 123.544 28.6164C123.544 28.6055 123.533 28.5947 123.533 28.5839C123.528 28.5676 123.522 28.5514 123.517 28.5406C123.517 28.5297 123.506 28.5135 123.5 28.5027C123.495 28.4864 123.49 28.4756 123.484 28.4594C123.484 28.4486 123.473 28.4377 123.468 28.4215C123.463 28.4107 123.457 28.3944 123.452 28.3836C123.446 28.3728 123.441 28.3565 123.435 28.3457C123.43 28.3349 123.419 28.3186 123.419 28.3078C123.414 28.297 123.408 28.2807 123.403 28.2699C123.398 28.2591 123.387 28.2428 123.381 28.232C123.376 28.2212 123.371 28.2049 123.365 28.1941C123.354 28.1725 123.343 28.1508 123.327 28.1292C123.322 28.1183 123.316 28.1021 123.306 28.0913C123.3 28.0804 123.295 28.0696 123.284 28.0588C123.278 28.048 123.268 28.0317 123.262 28.0209C123.257 28.0101 123.251 27.9992 123.241 27.9884C123.235 27.9722 123.224 27.9613 123.219 27.9505C123.214 27.9397 123.208 27.9289 123.197 27.918C123.192 27.9072 123.181 27.891 123.17 27.8801C123.165 27.8693 123.154 27.8585 123.154 27.8531C123.143 27.8368 123.138 27.826 123.127 27.8152L123.111 27.7881C123.111 27.7881 123.089 27.7611 123.084 27.7448C123.084 27.7448 123.084 27.7448 123.084 27.7394C123.057 27.7015 123.029 27.669 123.002 27.6311C123.002 27.6311 123.002 27.6257 122.997 27.6203C122.986 27.6041 122.975 27.5932 122.959 27.577C122.959 27.5716 122.948 27.5662 122.943 27.5608C122.932 27.5445 122.921 27.5337 122.905 27.5175C122.905 27.512 122.894 27.5066 122.889 27.5012C122.878 27.485 122.867 27.4741 122.851 27.4579C122.845 27.4525 122.84 27.4471 122.835 27.4363C122.824 27.4254 122.808 27.4092 122.797 27.3929C122.797 27.3929 122.791 27.3821 122.786 27.3767C122.775 27.3605 122.759 27.3442 122.743 27.3334C122.688 27.2793 122.64 27.2251 122.58 27.1764C122.564 27.1602 122.548 27.1439 122.531 27.1331C122.531 27.1331 122.526 27.1277 122.521 27.1223C122.504 27.106 122.488 27.0952 122.472 27.079C122.472 27.079 122.466 27.0736 122.461 27.0681C122.445 27.0573 122.429 27.0411 122.412 27.0303L122.797 26.5214L122.975 26.9057L123.138 26.2399L123.3 25.5741L122.705 25.9097L122.109 26.2453L122.526 26.3157L122.136 26.83C122.104 26.8083 122.077 26.7921 122.044 26.7704C122.023 26.7596 122.001 26.7433 121.985 26.7325C121.985 26.7325 121.985 26.7325 121.979 26.7325C121.828 26.6405 121.665 26.5647 121.503 26.4943C121.313 26.4131 121.113 26.3536 120.907 26.3103C120.707 26.267 120.501 26.2399 120.29 26.2291V25.6553L120.664 25.8501L120.393 25.2222L120.123 24.5942L119.576 25.8501L119.949 25.6553V26.2291C119.744 26.2399 119.538 26.267 119.338 26.3103C119.132 26.3536 118.937 26.4185 118.742 26.4943C118.574 26.5647 118.417 26.6405 118.26 26.7325C118.239 26.7433 118.217 26.7596 118.201 26.7704C118.179 26.7812 118.157 26.7975 118.141 26.8083L117.768 26.3157L118.185 26.2453L117.589 25.9097L116.994 25.5741L117.156 26.2399L117.318 26.9057L117.497 26.5214L117.865 27.0086C117.865 27.0086 117.854 27.0194 117.843 27.0248C117.843 27.0248 117.838 27.0248 117.833 27.0303C117.816 27.0411 117.8 27.0573 117.784 27.0736C117.784 27.0736 117.779 27.079 117.773 27.0844C117.757 27.1006 117.741 27.1114 117.724 27.1277C117.724 27.1277 117.719 27.1331 117.714 27.1385C117.697 27.1548 117.681 27.1656 117.665 27.1818C117.611 27.2305 117.557 27.2847 117.502 27.3388C117.502 27.3388 117.475 27.3713 117.459 27.3875C117.459 27.3875 117.448 27.3984 117.448 27.4038C117.432 27.42 117.421 27.4308 117.41 27.4471C117.405 27.4525 117.4 27.4579 117.394 27.4633C117.383 27.4741 117.373 27.4904 117.356 27.5066C117.351 27.512 117.345 27.5175 117.34 27.5229C117.329 27.5391 117.313 27.5499 117.302 27.5662C117.302 27.5716 117.291 27.577 117.286 27.5824C117.275 27.5987 117.264 27.6095 117.253 27.6257C117.253 27.6257 117.253 27.6311 117.248 27.6365C117.221 27.6744 117.194 27.7069 117.167 27.7448C117.167 27.7448 117.167 27.7448 117.167 27.7502C117.156 27.7665 117.145 27.7773 117.134 27.7935C117.129 27.7989 117.123 27.8098 117.118 27.8152C117.107 27.826 117.102 27.8423 117.091 27.8531C117.086 27.8639 117.08 27.8747 117.069 27.8801C117.064 27.891 117.053 27.9072 117.042 27.918C117.037 27.9289 117.031 27.9397 117.026 27.9451C117.015 27.9559 117.01 27.9722 117.004 27.983C116.999 27.9938 116.994 28.0047 116.983 28.0155C116.977 28.0263 116.967 28.0425 116.961 28.0534C116.956 28.0642 116.95 28.075 116.945 28.0859C116.939 28.0967 116.929 28.1129 116.923 28.1237C116.912 28.1454 116.902 28.1671 116.891 28.1887C116.885 28.1995 116.88 28.2158 116.869 28.2266C116.864 28.2428 116.858 28.2537 116.853 28.2645C116.847 28.2753 116.842 28.2916 116.837 28.3024C116.831 28.3132 116.826 28.3295 116.82 28.3403C116.815 28.3511 116.81 28.3674 116.804 28.3782C116.799 28.389 116.793 28.4052 116.788 28.4161C116.782 28.4269 116.777 28.4431 116.772 28.454C116.766 28.4702 116.761 28.481 116.755 28.4973C116.75 28.5081 116.745 28.5189 116.739 28.5352C116.739 28.5514 116.728 28.5622 116.723 28.5785C116.723 28.5893 116.712 28.6001 116.707 28.611C116.701 28.6326 116.69 28.6488 116.685 28.6705C116.685 28.6813 116.68 28.6867 116.674 28.6976C116.669 28.7192 116.658 28.7463 116.653 28.7679C116.653 28.7788 116.647 28.7896 116.642 28.8004C116.642 28.8167 116.631 28.8329 116.625 28.8491C116.625 28.86 116.62 28.8708 116.615 28.8816C116.615 28.8979 116.609 28.9141 116.604 28.9303C116.604 28.9412 116.598 28.952 116.593 28.9628C116.593 28.9791 116.588 28.9953 116.582 29.0115C116.582 29.0224 116.577 29.0332 116.571 29.0494C116.571 29.0657 116.566 29.0819 116.561 29.0982C116.561 29.109 116.561 29.1198 116.555 29.1306C116.555 29.1523 116.55 29.1739 116.544 29.1902C116.544 29.201 116.544 29.2064 116.544 29.2118C116.544 29.2389 116.533 29.266 116.528 29.2984C116.528 29.3039 116.528 29.3147 116.528 29.3201C116.528 29.3418 116.523 29.3634 116.523 29.3851C116.523 29.3959 116.523 29.4067 116.523 29.4175C116.523 29.4338 116.523 29.4554 116.517 29.4717C116.517 29.4825 116.517 29.4933 116.517 29.5042C116.517 29.5204 116.517 29.5421 116.517 29.5583C116.517 29.5691 116.517 29.5799 116.517 29.5962C116.517 29.6124 116.517 29.6341 116.517 29.6503C116.517 29.6611 116.517 29.672 116.517 29.6828C116.517 29.7044 116.517 29.7207 116.517 29.7423V29.7694C116.517 29.7965 116.517 29.829 116.517 29.856C116.517 29.8831 116.517 29.9156 116.517 29.9426V29.9697C116.517 29.9697 116.517 30.0076 116.517 30.0293C116.517 30.0401 116.517 30.0509 116.517 30.0617C116.517 30.078 116.517 30.0996 116.517 30.1159C116.517 30.1267 116.517 30.1375 116.517 30.1483C116.517 30.1646 116.517 30.1862 116.517 30.2025C116.517 30.2133 116.517 30.2241 116.517 30.235C116.517 30.2566 116.517 30.2729 116.523 30.2891C116.523 30.2999 116.523 30.3107 116.523 30.3216C116.523 30.3432 116.523 30.3649 116.528 30.3865C116.528 30.3919 116.528 30.4028 116.528 30.4082C116.528 30.4353 116.539 30.4623 116.544 30.4948C116.544 30.5056 116.544 30.511 116.544 30.5165C116.544 30.5381 116.55 30.5543 116.555 30.576C116.555 30.5868 116.555 30.5977 116.561 30.6085C116.561 30.6247 116.566 30.641 116.571 30.6626C116.571 30.6734 116.577 30.6843 116.582 30.6951C116.582 30.7113 116.588 30.7276 116.593 30.7438C116.593 30.7546 116.598 30.7655 116.604 30.7817C116.604 30.7979 116.609 30.8142 116.615 30.8304C116.615 30.8413 116.62 30.8521 116.625 30.8629C116.625 30.8791 116.636 30.8954 116.642 30.9116C116.642 30.9225 116.647 30.9333 116.653 30.9441C116.658 30.9658 116.669 30.9928 116.674 31.0145C116.674 31.0253 116.674 31.0307 116.685 31.0416C116.69 31.0632 116.696 31.0794 116.707 31.1011C116.707 31.1119 116.717 31.1228 116.723 31.1336C116.723 31.1498 116.734 31.1661 116.739 31.1769C116.745 31.1877 116.75 31.204 116.755 31.2148C116.755 31.231 116.766 31.2418 116.772 31.2581C116.777 31.2689 116.782 31.2852 116.788 31.296C116.793 31.3122 116.799 31.323 116.804 31.3339C116.81 31.3447 116.815 31.3609 116.82 31.3718C116.82 31.3826 116.831 31.3988 116.837 31.4097C116.842 31.4205 116.847 31.4313 116.853 31.4476C116.858 31.4638 116.864 31.4746 116.869 31.4854C116.874 31.4963 116.88 31.5071 116.885 31.5179C116.896 31.5396 116.912 31.5666 116.923 31.5883C116.929 31.5991 116.939 31.6154 116.945 31.6262C116.95 31.637 116.956 31.6478 116.961 31.6587C116.967 31.6695 116.977 31.6857 116.983 31.6966C116.988 31.7074 116.994 31.7182 117.004 31.729C117.01 31.7399 117.021 31.7561 117.026 31.7669C117.031 31.7778 117.037 31.7886 117.042 31.7994C117.053 31.8102 117.059 31.8265 117.069 31.8373C117.075 31.8481 117.08 31.859 117.091 31.8644C117.102 31.8752 117.107 31.8915 117.118 31.9023C117.123 31.9131 117.129 31.9185 117.134 31.9293C117.145 31.9456 117.156 31.9564 117.167 31.9726C117.167 31.9726 117.167 31.9727 117.172 31.9781C117.199 32.016 117.221 32.0484 117.253 32.0863C117.253 32.0863 117.259 32.0917 117.264 32.0972C117.275 32.1134 117.286 32.1296 117.297 32.1405C117.297 32.1459 117.308 32.1513 117.313 32.1621C117.324 32.1784 117.335 32.1892 117.345 32.2054C117.351 32.2108 117.356 32.2163 117.362 32.2271C117.373 32.2433 117.389 32.2541 117.4 32.2704C117.405 32.2758 117.41 32.2812 117.416 32.2866C117.427 32.3029 117.443 32.3137 117.454 32.3299C117.454 32.3299 117.465 32.3408 117.465 32.3462C117.481 32.3624 117.492 32.3787 117.508 32.3895C117.562 32.4436 117.616 32.4923 117.67 32.5465C117.686 32.5627 117.703 32.5789 117.719 32.5898C117.719 32.5898 117.724 32.5952 117.73 32.6006C117.741 32.6114 117.746 32.6168 117.757 32.6223L117.535 32.9146L117.118 32.855L116.441 33.7482L117.075 33.8186L117.313 34.4141L117.99 33.5209L117.811 33.1311L118.028 32.8442C118.087 32.8875 118.147 32.9254 118.212 32.9633C118.233 32.9741 118.255 32.9904 118.271 33.0012C118.423 33.0932 118.585 33.1744 118.753 33.2394C118.942 33.3152 119.143 33.3801 119.348 33.4234C119.549 33.4667 119.749 33.4938 119.96 33.5046V33.9323L119.587 34.138V35.2586L120.133 34.9338L120.68 35.2586V34.138L120.307 33.9323V33.5046C120.518 33.4938 120.723 33.4667 120.924 33.4234C120.951 33.4234 120.972 33.4126 120.999 33.4072C121.178 33.3639 121.351 33.3097 121.519 33.2394C121.687 33.169 121.844 33.0932 121.996 33.0012H122.001C122.001 33.0012 122.039 32.9741 122.06 32.9633C122.131 32.92 122.201 32.8713 122.272 32.8225L122.504 33.1311L122.326 33.5209L123.002 34.4141L123.241 33.8186L123.874 33.7482L123.197 32.855L122.775 32.9146L122.764 32.9037ZM123.23 30.9658H122.217C122.299 30.6355 122.342 30.2891 122.347 29.9318H123.425C123.414 30.2945 123.349 30.641 123.23 30.9658ZM123.181 28.5839C123.311 28.9033 123.398 29.2497 123.419 29.6124H122.347C122.331 29.2551 122.277 28.9087 122.185 28.5839H123.181ZM121.925 27.0681L121.876 27.1331H121.47C121.33 26.9545 121.173 26.7921 121.01 26.6459C121.341 26.7379 121.649 26.8841 121.931 27.0627L121.925 27.0681ZM121.709 28.2645H121.454L121.617 28.048C121.649 28.1183 121.682 28.1887 121.709 28.2645ZM120.285 26.5539C120.55 26.7 120.799 26.8949 121.016 27.1331H120.285V26.5539ZM120.285 27.4525H121.276C121.335 27.5337 121.389 27.6203 121.443 27.7123L121.021 28.2645H120.285V27.4525ZM119.933 26.5593V27.1385H119.202C119.419 26.9003 119.662 26.7054 119.933 26.5593ZM119.933 27.4525V28.2645H119.565L118.953 27.4525H119.933ZM119.213 26.6459C119.051 26.7921 118.894 26.9545 118.753 27.1331H118.715L118.547 26.9166C118.758 26.8029 118.98 26.7163 119.213 26.6459ZM117.811 27.4525H117.86L118.255 27.9722C118.212 28.0696 118.174 28.1616 118.136 28.2645H117.194C117.356 27.9613 117.567 27.6907 117.811 27.4525ZM117.037 28.5839H118.033C117.941 28.9087 117.887 29.2551 117.871 29.6124H116.799C116.826 29.2497 116.907 28.9033 117.037 28.5839ZM116.988 30.9658C116.869 30.641 116.804 30.2945 116.793 29.9318H117.871C117.876 30.2891 117.925 30.6355 118 30.9658H116.988ZM118.114 32.0972H117.676C117.454 31.859 117.264 31.5829 117.123 31.2852H118.092C118.152 31.48 118.228 31.6641 118.314 31.8373L118.12 32.0972H118.114ZM118.201 32.5573L118.309 32.4165H118.65C118.812 32.6493 119.007 32.8604 119.213 33.0391C118.845 32.9362 118.504 32.7738 118.201 32.5573ZM118.466 31.2852H118.731L118.553 31.5179C118.52 31.4421 118.493 31.3664 118.466 31.2852ZM119.933 33.1311C119.614 32.9579 119.332 32.7143 119.089 32.4165H119.933V33.1311ZM119.933 32.0972H118.856C118.807 32.0214 118.764 31.9456 118.72 31.8698L119.164 31.2852H119.933V32.0972ZM120.285 33.1311V32.4165H121.135C120.891 32.7143 120.604 32.9633 120.285 33.1311ZM121.005 33.0391C121.211 32.8604 121.4 32.6493 121.568 32.4165H121.611L121.817 32.6872C121.568 32.8388 121.297 32.9579 121.005 33.0391ZM121.855 30.9658H121.611L121.097 30.2891C121.086 30.4082 121.081 30.5273 121.097 30.6139V30.6247C121.14 30.8737 121.194 31.2148 120.842 31.3988L121.368 32.0917H120.29V31.2852C120.215 31.2148 120.16 31.139 120.117 31.0849C120.112 31.074 120.101 31.0578 120.09 31.0361C120.063 30.9874 120.009 30.9008 119.938 30.8088V30.9603H119.413L119.711 30.5706C119.624 30.5056 119.527 30.4515 119.419 30.4298C119.408 30.4298 119.397 30.4298 119.386 30.4244L118.98 30.9603H118.374C118.287 30.6355 118.239 30.2837 118.233 29.9264H118.775C118.775 29.9264 118.78 29.8885 118.785 29.8723C118.807 29.7748 118.84 29.6882 118.877 29.607H118.233C118.249 29.2497 118.309 28.9033 118.406 28.5785H118.715L119.191 29.2118C119.229 29.1848 119.262 29.1577 119.294 29.136C119.186 29.0115 119.202 28.8329 119.208 28.7734C119.224 28.6434 119.348 28.3944 119.738 28.3619C119.819 28.3565 119.89 28.3511 119.96 28.3511C120.117 28.3511 120.252 28.3674 120.382 28.3998C120.626 28.4648 120.864 28.6001 121.021 28.8221L121.205 28.5785H121.806C121.903 28.9033 121.963 29.2443 121.979 29.607H121.194C121.189 29.6557 121.178 29.7045 121.167 29.7532L121.156 29.8073C121.151 29.8452 121.14 29.8831 121.135 29.9264H121.979C121.974 30.2837 121.925 30.6355 121.839 30.9603L121.855 30.9658ZM121.855 27.7394L122.071 27.4579H122.412C122.656 27.6961 122.867 27.9668 123.029 28.2699H122.088C122.023 28.0859 121.941 27.9072 121.855 27.7394ZM122.466 32.0972L122.044 31.5342C122.077 31.453 122.109 31.3718 122.136 31.2852H123.105C122.959 31.5829 122.775 31.859 122.548 32.0972H122.466Z" fill="url(#paint18_linear_2664_5019)"/>
<path fill-rule="evenodd" clip-rule="evenodd" d="M115.849 22.1964L115.914 22.31C116.115 22.2126 116.353 22.2884 116.461 22.4779L116.835 23.1599L116.477 23.3602L116.645 23.6688C117.701 23.1978 118.87 22.9326 120.104 22.9326C121.339 22.9326 122.508 23.1978 123.563 23.6688L123.731 23.3548L123.369 23.1654L123.731 22.4724C123.839 22.2667 124.088 22.191 124.294 22.2938L124.402 22.0935L124.565 21.7904L123.802 21.4168L123.666 21.7308C123.488 21.6496 123.298 21.5792 123.114 21.5143L123.228 21.1895L121.582 20.7672L121.528 21.1029C121.328 21.0704 121.122 21.0487 120.916 21.0271L120.949 20.686H119.249L119.281 21.0271C119.081 21.0487 118.875 21.0704 118.681 21.1029L118.626 20.7618L116.981 21.1787L117.094 21.5035C116.91 21.5684 116.721 21.6388 116.542 21.72L116.407 21.406L115.633 21.7849L115.849 22.1855V22.1964ZM121.777 21.8391C121.831 21.6171 122.058 21.4818 122.28 21.5359C122.508 21.5901 122.643 21.8174 122.589 22.0394L122.389 22.8622L121.577 22.6619L121.777 21.8391ZM119.687 21.6659C119.687 21.4385 119.877 21.249 120.104 21.249C120.332 21.249 120.521 21.4331 120.521 21.6659V22.5536H119.687V21.6659ZM117.89 21.5251C118.112 21.4656 118.339 21.5955 118.399 21.8174L118.621 22.6511L117.814 22.8676L117.592 22.0394C117.533 21.812 117.663 21.5847 117.89 21.5251Z" fill="url(#paint19_linear_2664_5019)"/>
<path fill-rule="evenodd" clip-rule="evenodd" d="M118.58 20.4855L118.505 20.0254C116.724 20.4801 118.494 20.0254 116.734 20.4747L116.886 20.9132C118.58 20.4801 116.886 20.9132 118.58 20.4855Z" fill="url(#paint20_linear_2664_5019)"/>
<path fill-rule="evenodd" clip-rule="evenodd" d="M116.295 21.1513L116.111 20.7236C115.277 21.1296 116.111 20.7236 115.277 21.1296L115.499 21.5356C116.295 21.1513 115.499 21.5356 116.295 21.1513Z" fill="url(#paint21_linear_2664_5019)"/>
<path fill-rule="evenodd" clip-rule="evenodd" d="M120.98 20.4153L121.024 19.9443H119.199L119.237 20.4153H120.98Z" fill="url(#paint22_linear_2664_5019)"/>
<path fill-rule="evenodd" clip-rule="evenodd" d="M123.485 20.4854C121.715 20.0361 123.485 20.4854 121.72 20.0361L121.645 20.4963C123.339 20.9293 121.645 20.4963 123.333 20.9293L123.485 20.4854Z" fill="url(#paint23_linear_2664_5019)"/>
<path fill-rule="evenodd" clip-rule="evenodd" d="M124.931 21.1301C124.108 20.7295 124.931 21.1301 124.114 20.7295L123.93 21.1571C124.72 21.5415 123.93 21.1571 124.715 21.5415L124.937 21.1301H124.931Z" fill="url(#paint24_linear_2664_5019)"/>
<path fill-rule="evenodd" clip-rule="evenodd" d="M124.996 23.9932H123.388C122.382 23.5493 121.272 23.3003 120.102 23.3003C118.933 23.3003 117.823 23.5493 116.817 23.9932H115.23V25.8662C115.382 26.1802 115.458 26.5158 115.447 26.846C115.431 27.2629 115.371 27.4848 115.236 27.7988C115.333 27.9233 115.458 28.1128 115.577 28.3401V24.3559H124.633V28.3618C124.758 28.1236 124.888 27.9233 124.991 27.7988C124.855 27.4902 124.79 27.2683 124.78 26.846C124.769 26.5104 124.845 26.1802 124.996 25.8662V23.9932ZM117.867 23.9932C118.576 23.7821 119.328 23.663 120.108 23.663C120.887 23.663 121.64 23.7767 122.344 23.9932H117.867Z" fill="url(#paint25_linear_2664_5019)"/>
<path d="M25.5051 31.1063C24.6281 26.9218 24.1788 24.7727 24.168 24.7293C23.7349 23.1432 22.0947 23.2623 21.5966 23.3381L15.2738 24.3612L6.14691 19.002C5.71384 18.6934 5.16709 18.5906 4.6474 18.7205C4.14937 18.845 3.73796 19.1807 3.52143 19.63L3.5106 19.6516C3.46729 19.7382 3.43481 19.8357 3.40774 19.9385L0.018979 33.3853L0.00815208 33.4394C-0.0351548 33.8779 0.0947651 34.3056 0.381673 34.6466C0.663168 34.9823 1.06917 35.1934 1.51307 35.2421H1.53472L19.1552 35.1501C19.5937 35.188 20.0214 35.0635 20.3624 34.7982C20.7143 34.5221 20.9308 34.1324 20.9795 33.6939V33.6506L20.9416 33.3041L23.9569 33.3528H23.9623C24.0056 33.3528 24.0543 33.3528 24.0976 33.3528C24.7364 33.3095 25.0828 33.0118 25.2615 32.7682C25.6891 32.1835 25.57 31.404 25.4997 31.1063M4.22516 19.9656C4.33884 19.722 4.5662 19.5433 4.84229 19.473C5.14543 19.3972 5.45941 19.4567 5.70842 19.6408L5.72466 19.6516L14.0829 24.5561L6.34179 25.812H6.31472C5.99533 25.8824 5.21581 26.0935 4.82605 26.7052C4.59868 27.0571 4.53914 27.4631 4.64199 27.9178L5.38903 31.4203C5.48647 31.9833 6.10901 33.0768 7.09966 33.0768L20.1675 33.2933L20.2108 33.656C20.1783 33.8671 20.0647 34.0566 19.8914 34.1919C19.702 34.3381 19.4638 34.4084 19.2202 34.3814H19.1985L1.57803 34.4734C1.33984 34.4463 1.12872 34.3327 0.977144 34.154C0.830984 33.9808 0.76061 33.7697 0.776851 33.5477L4.1602 20.1334C4.17644 20.0793 4.19268 20.0305 4.20892 19.9872M15.1277 25.1732L18.4785 27.1437C19.3934 27.8041 19.5829 28.7623 19.6099 28.9355L20.0701 32.5192L7.11048 32.3026C6.63411 32.3026 6.21187 31.6314 6.14691 31.2687L5.39445 27.7446C5.3349 27.4956 5.36197 27.2899 5.47023 27.1166C5.70842 26.7431 6.29307 26.6024 6.46629 26.5699H6.47712L15.1277 25.1678V25.1732ZM24.6444 32.3135C24.5253 32.4759 24.3304 32.5625 24.0489 32.5841C24.0218 32.5841 23.9948 32.5841 23.9677 32.5841L20.8496 32.53L20.3786 28.8218C20.3407 28.5837 20.0917 27.3386 18.917 26.4995L16.324 24.9729L21.7211 24.096C22.8904 23.9173 23.2964 24.4479 23.4209 24.9134C23.4534 25.0487 24.3033 29.1196 24.7526 31.2687C24.8284 31.5935 24.8447 32.0374 24.6498 32.3026" fill="#2A4B7B"/>
<path d="M35.7865 33.402L33.5128 30.2677H32.4302V33.402H29.8047V23.3169H33.7619C36.0084 23.3169 37.6595 24.6919 37.6595 26.7869C37.6595 28.0265 37.064 29.0496 36.0734 29.6614L38.7313 33.402H35.7973H35.7865ZM32.4248 27.9778H33.7673C34.4981 27.9778 34.9745 27.5068 34.9745 26.7869C34.9745 26.0669 34.4981 25.6122 33.7673 25.6122H32.4248V27.9778Z" fill="#2A4B7B"/>
<path d="M42.3872 23.3218H39.7617V33.4069H42.3872V23.3218Z" fill="#2A4B7B"/>
<path d="M49.308 23.1378C52.2421 23.0783 54.8242 25.4764 54.7647 28.3617C54.8242 31.2795 52.2421 33.6343 49.308 33.5856C46.3577 33.6289 43.8243 31.2795 43.8838 28.3617C43.8243 25.4764 46.3577 23.0783 49.308 23.1378ZM49.3189 25.5522C47.7003 25.5522 46.5689 26.6998 46.5689 28.3617C46.5689 29.2008 46.8287 29.8883 47.3322 30.408C47.8356 30.9114 48.5068 31.1712 49.3189 31.1712C50.8779 31.1712 52.0688 30.0398 52.0688 28.3617C52.0688 26.6836 50.8779 25.5522 49.3189 25.5522Z" fill="#2A4B7B"/>
<path d="M56.7461 23.3218H62.9011V24.0363H57.5419V27.934H62.0025V28.6485H57.5419V33.4015H56.7461V23.3218Z" fill="#2A4B7B"/>
<path d="M65.4598 23.3218H64.6641V33.4069H65.4598V23.3218Z" fill="#2A4B7B"/>
<path d="M68.4336 23.3218H69.2294V32.6815H74.1934V33.4015H68.4336V23.3218Z" fill="#2A4B7B"/>
<path d="M85.0517 23.165V33.4017H84.2613V25.2113L80.7156 30.2565H80.4124L76.8505 25.2113V33.4017H76.0547V23.165H76.3633L80.564 29.1576L84.7485 23.165H85.0517Z" fill="#2A4B7B"/>
<path d="M88.0508 23.3218H94.3573V24.0363H88.8411V27.5983H93.1339V28.3129H88.8411V32.6815H94.5414V33.4015H88.0508V23.3218Z" fill="#2A4B7B"/>
</g>
<defs>
<linearGradient id="paint0_linear_2664_5019" x1="114.844" y1="37.7862" x2="117.366" y2="37.7862" gradientUnits="userSpaceOnUse">
<stop stop-color="#436389"/>
<stop offset="0.36" stop-color="#5E8CB7"/>
<stop offset="0.76" stop-color="#7BB6E7"/>
</linearGradient>
<linearGradient id="paint1_linear_2664_5019" x1="122.869" y1="-12.0324" x2="125.391" y2="-12.0324" gradientUnits="userSpaceOnUse">
<stop stop-color="#436389"/>
<stop offset="0.36" stop-color="#5E8CB7"/>
<stop offset="0.76" stop-color="#7BB6E7"/>
</linearGradient>
<linearGradient id="paint2_linear_2664_5019" x1="110.598" y1="26.1101" x2="115.02" y2="26.1101" gradientUnits="userSpaceOnUse">
<stop stop-color="#436389"/>
<stop offset="0.36" stop-color="#5E8CB7"/>
<stop offset="0.76" stop-color="#7BB6E7"/>
</linearGradient>
<linearGradient id="paint3_linear_2664_5019" x1="125.241" y1="26.2023" x2="129.745" y2="26.2023" gradientUnits="userSpaceOnUse">
<stop stop-color="#436389"/>
<stop offset="0.36" stop-color="#5E8CB7"/>
<stop offset="0.76" stop-color="#7BB6E7"/>
</linearGradient>
<linearGradient id="paint4_linear_2664_5019" x1="126.283" y1="30.4133" x2="128.556" y2="30.4133" gradientUnits="userSpaceOnUse">
<stop stop-color="#436389"/>
<stop offset="0.36" stop-color="#5E8CB7"/>
<stop offset="0.76" stop-color="#7BB6E7"/>
</linearGradient>
<linearGradient id="paint5_linear_2664_5019" x1="111.512" y1="30.2456" x2="113.931" y2="30.2456" gradientUnits="userSpaceOnUse">
<stop stop-color="#436389"/>
<stop offset="0.36" stop-color="#5E8CB7"/>
<stop offset="0.76" stop-color="#7BB6E7"/>
</linearGradient>
<linearGradient id="paint6_linear_2664_5019" x1="112.225" y1="34.0238" x2="113.221" y2="34.0238" gradientUnits="userSpaceOnUse">
<stop stop-color="#436389"/>
<stop offset="0.36" stop-color="#5E8CB7"/>
<stop offset="0.76" stop-color="#7BB6E7"/>
</linearGradient>
<linearGradient id="paint7_linear_2664_5019" x1="115.789" y1="34.1543" x2="116.65" y2="34.1543" gradientUnits="userSpaceOnUse">
<stop stop-color="#436389"/>
<stop offset="0.36" stop-color="#5E8CB7"/>
<stop offset="0.76" stop-color="#7BB6E7"/>
</linearGradient>
<linearGradient id="paint8_linear_2664_5019" x1="114.672" y1="29.8664" x2="115.809" y2="29.8664" gradientUnits="userSpaceOnUse">
<stop stop-color="#436389"/>
<stop offset="0.36" stop-color="#5E8CB7"/>
<stop offset="0.76" stop-color="#7BB6E7"/>
</linearGradient>
<linearGradient id="paint9_linear_2664_5019" x1="123.594" y1="34.1543" x2="124.454" y2="34.1543" gradientUnits="userSpaceOnUse">
<stop stop-color="#436389"/>
<stop offset="0.36" stop-color="#5E8CB7"/>
<stop offset="0.76" stop-color="#7BB6E7"/>
</linearGradient>
<linearGradient id="paint10_linear_2664_5019" x1="111.695" y1="31.821" x2="120.043" y2="31.821" gradientUnits="userSpaceOnUse">
<stop stop-color="#436389"/>
<stop offset="0.36" stop-color="#5E8CB7"/>
<stop offset="0.76" stop-color="#7BB6E7"/>
</linearGradient>
<linearGradient id="paint11_linear_2664_5019" x1="118.215" y1="37.3423" x2="119.92" y2="37.3423" gradientUnits="userSpaceOnUse">
<stop stop-color="#436389"/>
<stop offset="0.36" stop-color="#5E8CB7"/>
<stop offset="0.76" stop-color="#7BB6E7"/>
</linearGradient>
<linearGradient id="paint12_linear_2664_5019" x1="119.01" y1="36.1298" x2="121.23" y2="36.1298" gradientUnits="userSpaceOnUse">
<stop stop-color="#436389"/>
<stop offset="0.36" stop-color="#5E8CB7"/>
<stop offset="0.76" stop-color="#7BB6E7"/>
</linearGradient>
<linearGradient id="paint13_linear_2664_5019" x1="124.427" y1="29.867" x2="125.564" y2="29.867" gradientUnits="userSpaceOnUse">
<stop stop-color="#436389"/>
<stop offset="0.36" stop-color="#5E8CB7"/>
<stop offset="0.76" stop-color="#7BB6E7"/>
</linearGradient>
<linearGradient id="paint14_linear_2664_5019" x1="127.014" y1="34.0238" x2="128.011" y2="34.0238" gradientUnits="userSpaceOnUse">
<stop stop-color="#436389"/>
<stop offset="0.36" stop-color="#5E8CB7"/>
<stop offset="0.76" stop-color="#7BB6E7"/>
</linearGradient>
<linearGradient id="paint15_linear_2664_5019" x1="120.195" y1="31.8211" x2="128.543" y2="31.8211" gradientUnits="userSpaceOnUse">
<stop stop-color="#436389"/>
<stop offset="0.36" stop-color="#5E8CB7"/>
<stop offset="0.76" stop-color="#7BB6E7"/>
</linearGradient>
<linearGradient id="paint16_linear_2664_5019" x1="120.318" y1="37.3423" x2="122.023" y2="37.3423" gradientUnits="userSpaceOnUse">
<stop stop-color="#436389"/>
<stop offset="0.36" stop-color="#5E8CB7"/>
<stop offset="0.76" stop-color="#7BB6E7"/>
</linearGradient>
<linearGradient id="paint17_linear_2664_5019" x1="118.907" y1="29.8993" x2="121.061" y2="29.8993" gradientUnits="userSpaceOnUse">
<stop stop-color="#436389"/>
<stop offset="0.36" stop-color="#5E8CB7"/>
<stop offset="0.76" stop-color="#7BB6E7"/>
</linearGradient>
<linearGradient id="paint18_linear_2664_5019" x1="116.404" y1="29.9047" x2="123.863" y2="29.9047" gradientUnits="userSpaceOnUse">
<stop stop-color="#436389"/>
<stop offset="0.36" stop-color="#5E8CB7"/>
<stop offset="0.76" stop-color="#7BB6E7"/>
</linearGradient>
<linearGradient id="paint19_linear_2664_5019" x1="115.633" y1="22.1855" x2="124.57" y2="22.1855" gradientUnits="userSpaceOnUse">
<stop stop-color="#436389"/>
<stop offset="0.36" stop-color="#5E8CB7"/>
<stop offset="0.76" stop-color="#7BB6E7"/>
</linearGradient>
<linearGradient id="paint20_linear_2664_5019" x1="116.74" y1="20.4747" x2="118.58" y2="20.4747" gradientUnits="userSpaceOnUse">
<stop stop-color="#436389"/>
<stop offset="0.36" stop-color="#5E8CB7"/>
<stop offset="0.76" stop-color="#7BB6E7"/>
</linearGradient>
<linearGradient id="paint21_linear_2664_5019" x1="115.277" y1="21.1296" x2="116.295" y2="21.1296" gradientUnits="userSpaceOnUse">
<stop stop-color="#436389"/>
<stop offset="0.36" stop-color="#5E8CB7"/>
<stop offset="0.76" stop-color="#7BB6E7"/>
</linearGradient>
<linearGradient id="paint22_linear_2664_5019" x1="119.199" y1="20.1825" x2="121.024" y2="20.1825" gradientUnits="userSpaceOnUse">
<stop stop-color="#436389"/>
<stop offset="0.36" stop-color="#5E8CB7"/>
<stop offset="0.76" stop-color="#7BB6E7"/>
</linearGradient>
<linearGradient id="paint23_linear_2664_5019" x1="121.639" y1="20.48" x2="123.485" y2="20.48" gradientUnits="userSpaceOnUse">
<stop stop-color="#436389"/>
<stop offset="0.36" stop-color="#5E8CB7"/>
<stop offset="0.76" stop-color="#7BB6E7"/>
</linearGradient>
<linearGradient id="paint24_linear_2664_5019" x1="123.93" y1="21.1355" x2="124.931" y2="21.1355" gradientUnits="userSpaceOnUse">
<stop stop-color="#436389"/>
<stop offset="0.36" stop-color="#5E8CB7"/>
<stop offset="0.76" stop-color="#7BB6E7"/>
</linearGradient>
<linearGradient id="paint25_linear_2664_5019" x1="115.236" y1="25.8337" x2="124.996" y2="25.8337" gradientUnits="userSpaceOnUse">
<stop stop-color="#436389"/>
<stop offset="0.36" stop-color="#5E8CB7"/>
<stop offset="0.76" stop-color="#7BB6E7"/>
</linearGradient>
<clipPath id="clip0_2664_5019">
<rect width="208" height="52" fill="white"/>
</clipPath>
</defs>
</svg>
